<?xml version="1.0" encoding="UTF-8"?>
<svg id="Layer_1" data-name="Layer 1" xmlns="http://www.w3.org/2000/svg" xmlns:xlink="http://www.w3.org/1999/xlink" viewBox="0 0 257.92 157.86">
  <defs>
    <style>
      .cls-1 {
        fill: url(#linear-gradient-12);
      }

      .cls-1, .cls-2, .cls-3, .cls-4, .cls-5, .cls-6, .cls-7, .cls-8, .cls-9, .cls-10, .cls-11, .cls-12, .cls-13, .cls-14, .cls-15, .cls-16, .cls-17, .cls-18, .cls-19, .cls-20, .cls-21, .cls-22, .cls-23, .cls-24, .cls-25, .cls-26, .cls-27, .cls-28, .cls-29, .cls-30, .cls-31 {
        stroke-width: 0px;
      }

      .cls-2 {
        fill: url(#linear-gradient-17);
      }

      .cls-3 {
        fill: url(#linear-gradient-19);
      }

      .cls-4 {
        fill: url(#linear-gradient);
      }

      .cls-5 {
        fill: url(#linear-gradient-21);
      }

      .cls-6 {
        fill: url(#linear-gradient-6);
      }

      .cls-7 {
        fill: url(#linear-gradient-15);
      }

      .cls-8 {
        fill: url(#linear-gradient-11);
      }

      .cls-9 {
        fill: url(#linear-gradient-5);
      }

      .cls-10 {
        fill: url(#linear-gradient-31);
      }

      .cls-11 {
        fill: url(#linear-gradient-13);
      }

      .cls-12 {
        fill: url(#linear-gradient-23);
      }

      .cls-13 {
        fill: url(#linear-gradient-25);
      }

      .cls-14 {
        fill: url(#linear-gradient-16);
      }

      .cls-15 {
        fill: url(#linear-gradient-22);
      }

      .cls-16 {
        fill: url(#linear-gradient-20);
      }

      .cls-17 {
        fill: url(#linear-gradient-14);
      }

      .cls-18 {
        fill: url(#linear-gradient-2);
      }

      .cls-19 {
        fill: url(#linear-gradient-7);
      }

      .cls-20 {
        fill: url(#linear-gradient-3);
      }

      .cls-21 {
        fill: url(#linear-gradient-9);
      }

      .cls-22 {
        fill: url(#linear-gradient-27);
      }

      .cls-23 {
        fill: url(#linear-gradient-8);
      }

      .cls-24 {
        fill: url(#linear-gradient-24);
      }

      .cls-25 {
        fill: url(#linear-gradient-26);
      }

      .cls-26 {
        fill: url(#linear-gradient-18);
      }

      .cls-27 {
        fill: url(#linear-gradient-30);
      }

      .cls-28 {
        fill: url(#linear-gradient-29);
      }

      .cls-29 {
        fill: url(#linear-gradient-28);
      }

      .cls-30 {
        fill: url(#linear-gradient-10);
      }

      .cls-31 {
        fill: url(#linear-gradient-4);
      }
    </style>
    <linearGradient id="linear-gradient" x1="636" y1="102.15" x2="636.06" y2="127.32" gradientTransform="translate(654.36) rotate(-180) scale(1 -1)" gradientUnits="userSpaceOnUse">
      <stop offset="0" stop-color="#445456" stop-opacity=".7"/>
      <stop offset="1" stop-color="#231f20" stop-opacity="0"/>
    </linearGradient>
    <linearGradient id="linear-gradient-2" x1="615.38" y1="120.18" x2="615.43" y2="140.34" xlink:href="#linear-gradient"/>
    <linearGradient id="linear-gradient-3" x1="579.34" y1="95.24" x2="579.4" y2="120.43" xlink:href="#linear-gradient"/>
    <linearGradient id="linear-gradient-4" x1="556.44" y1="72.61" x2="556.52" y2="102.8" xlink:href="#linear-gradient"/>
    <linearGradient id="linear-gradient-5" x1="613.71" y1="90.93" x2="613.79" y2="121.15" xlink:href="#linear-gradient"/>
    <linearGradient id="linear-gradient-6" x1="521.25" y1="10.89" x2="521.54" y2="131.54" xlink:href="#linear-gradient"/>
    <linearGradient id="linear-gradient-7" x1="438.93" y1="84.06" x2="439" y2="114.28" xlink:href="#linear-gradient"/>
    <linearGradient id="linear-gradient-8" x1="539.73" y1="70.05" x2="539.79" y2="95.27" xlink:href="#linear-gradient"/>
    <linearGradient id="linear-gradient-9" x1="591.45" y1="147.31" x2="590.4" y2="60.12" gradientTransform="translate(654.36) rotate(-180) scale(1 -1)" gradientUnits="userSpaceOnUse">
      <stop offset="0" stop-color="#b1b3a5"/>
      <stop offset="1" stop-color="#231f20" stop-opacity="0"/>
    </linearGradient>
    <linearGradient id="linear-gradient-10" x1="574.87" y1="198.07" x2="573.65" y2="95.74" xlink:href="#linear-gradient-9"/>
    <linearGradient id="linear-gradient-11" x1="494.49" y1="151.41" x2="493.64" y2="80.56" xlink:href="#linear-gradient-9"/>
    <linearGradient id="linear-gradient-12" x1="567.49" y1="132.67" x2="567.14" y2="103.26" xlink:href="#linear-gradient-9"/>
    <linearGradient id="linear-gradient-13" x1="588.2" y1="125.79" x2="587.66" y2="81.42" xlink:href="#linear-gradient-9"/>
    <linearGradient id="linear-gradient-14" x1="627.46" y1="69" x2="625.64" y2="172.07" gradientTransform="translate(654.36) rotate(-180) scale(1 -1)" gradientUnits="userSpaceOnUse">
      <stop offset="0" stop-color="#fefdf1"/>
      <stop offset="1" stop-color="#231f20" stop-opacity="0"/>
    </linearGradient>
    <linearGradient id="linear-gradient-15" x1="595.21" y1="92.1" x2="594.01" y2="160.02" xlink:href="#linear-gradient-14"/>
    <linearGradient id="linear-gradient-16" x1="593.8" y1="48.77" x2="592.33" y2="132.64" xlink:href="#linear-gradient-14"/>
    <linearGradient id="linear-gradient-17" x1="559.16" y1="43.55" x2="558.24" y2="95.53" xlink:href="#linear-gradient-14"/>
    <linearGradient id="linear-gradient-18" x1="572.57" y1="-3.7" x2="570.78" y2="97.89" xlink:href="#linear-gradient-14"/>
    <linearGradient id="linear-gradient-19" x1="563.15" y1="-17.27" x2="561.98" y2="49.47" xlink:href="#linear-gradient-14"/>
    <linearGradient id="linear-gradient-20" x1="503.99" y1="-36.75" x2="501.56" y2="101.47" xlink:href="#linear-gradient-14"/>
    <linearGradient id="linear-gradient-21" x1="531.2" y1="87.94" x2="529.71" y2="172.1" xlink:href="#linear-gradient-14"/>
    <linearGradient id="linear-gradient-22" x1="567.83" y1="96.53" x2="566.63" y2="165.04" xlink:href="#linear-gradient-14"/>
    <linearGradient id="linear-gradient-23" x1="510.97" y1="119.67" x2="511.09" y2="113.04" gradientTransform="translate(-327.04)" xlink:href="#linear-gradient"/>
    <linearGradient id="linear-gradient-24" x1="509.85" y1="122.79" x2="511.09" y2="94.1" gradientTransform="translate(-327.04)" xlink:href="#linear-gradient"/>
    <linearGradient id="linear-gradient-25" x1="544.93" y1="134.34" x2="545.79" y2="114.49" gradientTransform="translate(-327.04)" xlink:href="#linear-gradient"/>
    <linearGradient id="linear-gradient-26" x1="501.35" y1="150.76" x2="500.22" y2="56.47" gradientTransform="translate(-327.04)" xlink:href="#linear-gradient-9"/>
    <linearGradient id="linear-gradient-27" x1="518.68" y1="189.55" x2="517.3" y2="74.67" gradientTransform="translate(-327.04)" xlink:href="#linear-gradient-9"/>
    <linearGradient id="linear-gradient-28" x1="544.41" y1="204.01" x2="543.19" y2="102.38" gradientTransform="translate(-327.04)" xlink:href="#linear-gradient-9"/>
    <linearGradient id="linear-gradient-29" x1="555.8" y1="99.4" x2="554.33" y2="182.68" gradientTransform="translate(-327.04)" xlink:href="#linear-gradient-14"/>
    <linearGradient id="linear-gradient-30" x1="545.51" y1="96.2" x2="545.21" y2="113.63" gradientTransform="translate(-327.04)" xlink:href="#linear-gradient-14"/>
    <linearGradient id="linear-gradient-31" x1="529.59" y1="73.59" x2="528.99" y2="107.55" gradientTransform="translate(-327.04)" xlink:href="#linear-gradient-14"/>
  </defs>
  <polyline class="cls-4" points="32.08 123.75 4.58 123.75 4.58 114.58 0 114.58 0 110 9.17 110 9.17 100.83 18.33 100.83 18.33 105.42 36.67 105.42 36.67 114.58 32.08 114.58"/>
  <polygon class="cls-18" points="22.92 132.92 22.92 128.33 18.33 128.33 18.33 123.75 41.25 123.75 41.25 119.17 55 119.17 55 123.75 59.58 123.75 59.58 132.92 55 132.92 55 137.5 36.67 137.5 36.67 132.92 22.92 132.92"/>
  <polyline class="cls-20" points="81.85 116.87 68.1 116.87 68.1 112.29 58.94 112.29 58.94 107.71 63.52 107.71 63.52 103.12 68.1 103.12 68.1 93.96 72.69 93.96 72.69 98.54 77.27 98.54 77.27 93.96 86.44 93.96 86.44 103.12 91.02 103.12 91.02 112.29 81.85 112.29"/>
  <polyline class="cls-31" points="95.6 98.54 91.02 98.54 91.02 89.37 95.6 89.37 95.6 80.21 91.02 80.21 91.02 75.62 86.44 75.62 86.44 71.04 100.19 71.04 100.19 80.21 109.35 80.21 109.35 89.37 104.77 89.37 104.77 98.54"/>
  <polyline class="cls-9" points="49.77 112.29 45.19 112.29 45.19 116.87 31.44 116.87 31.44 112.29 22.27 112.29 22.27 103.12 31.44 103.12 31.44 93.96 36.02 93.96 36.02 89.37 49.77 89.37 49.77 98.54 58.94 98.54 58.94 112.29"/>
  <polyline class="cls-6" points="201.67 82.5 201.67 68.75 197.08 68.75 197.08 50.42 165 50.42 165 41.25 160.42 41.25 160.42 22.92 155.83 22.92 155.83 18.33 151.25 18.33 151.25 9.17 142.08 9.17 142.08 22.92 132.92 22.92 132.92 18.33 128.33 18.33 128.33 13.75 123.75 13.75 123.75 4.58 105.42 4.58 105.42 9.17 96.25 9.17 96.25 13.75 87.08 13.75 87.08 18.33 77.92 18.33 77.92 27.5 82.5 27.5 82.5 32.08 87.08 32.08 87.08 36.67 91.67 36.67 91.67 41.25 87.08 41.25 87.08 50.42 82.5 50.42 82.5 64.17 77.92 64.17 77.92 73.33 64.17 73.33 64.17 77.92 77.92 77.92 77.92 91.67 87.08 91.67 87.08 96.25 96.25 96.25 96.25 105.42 114.58 105.42 114.58 110 137.5 110 137.5 114.58 165 114.58 165 105.42 201.67 105.42"/>
  <polyline class="cls-19" points="201.67 110 224.58 110 224.58 96.25 229.17 96.25 229.17 91.67 220 91.67 220.12 82.5 201.67 82.5"/>
  <polyline class="cls-23" points="142.08 91.67 142.08 82.5 137.5 82.5 137.5 73.33 119.17 73.33 119.17 68.75 110 68.75 110 77.92 91.67 77.92 91.67 82.5 87.08 82.5 87.08 87.08 91.67 87.08 91.67 91.67"/>
  <polyline class="cls-21" points="95.6 84.79 77.27 84.79 77.27 89.37 72.69 89.37 72.69 80.21 58.94 80.21 58.94 84.79 54.35 84.79 54.35 80.21 45.19 80.21 45.19 84.79 36.02 84.79 36.02 89.37 31.44 89.37 31.44 93.96 22.27 93.96 22.27 103.12 36.02 103.12 36.02 93.96 49.77 93.96 49.77 98.54 58.94 98.54 58.94 107.71 63.52 107.71 63.52 103.12 68.1 103.12 68.1 93.96 72.69 93.96 72.69 98.54 104.77 98.54 104.77 93.96 100.19 93.96 100.19 89.37 95.6 89.37"/>
  <polyline class="cls-30" points="151.25 137.5 146.67 137.5 146.67 128.33 137.5 128.33 137.5 132.92 123.75 132.92 123.75 137.5 119.17 137.5 119.17 142.08 114.58 142.08 114.58 146.67 105.42 146.67 105.42 151.25 91.67 151.25 91.67 146.67 82.5 146.67 82.5 151.25 68.75 151.25 68.75 146.67 55 146.67 55 151.25 45.83 151.25 45.83 146.67 32.08 146.67 32.08 142.08 9.17 142.08 9.17 137.5 22.92 137.5 22.92 132.92 45.83 132.92 45.83 137.5 55 137.5 55 128.33 59.58 128.33 59.58 119.17 77.92 119.17 77.92 128.33 82.5 128.33 82.5 132.92 96.25 132.92 96.25 123.75 110 123.75 110 132.92 119.17 132.92 119.17 123.75 151.25 123.75"/>
  <polygon class="cls-8" points="229.17 110 229.17 114.58 215.42 114.58 215.42 119.17 201.67 119.17 201.67 114.58 192.5 114.58 192.5 119.17 151.25 119.17 151.25 114.58 137.5 114.58 137.5 110 119.17 110 119.17 114.58 100.83 114.58 100.83 100.83 91.67 100.83 91.67 96.25 114.58 96.25 114.58 105.42 142.08 105.42 142.08 110 165 110 165 105.42 201.67 105.42 201.67 110 229.17 110"/>
  <polyline class="cls-1" points="100.83 119.17 100.83 114.58 87.08 114.58 87.08 110 73.33 110 73.33 119.17"/>
  <polyline class="cls-11" points="68.75 105.42 68.75 100.83 64.17 100.83 64.17 105.42 45.83 105.42 45.83 96.25 55 96.25 55 91.67 68.75 91.67 73.33 91.67 73.33 96.25 87.08 96.25 87.08 105.42"/>
  <polyline class="cls-17" points="32.08 96.25 9.17 96.25 9.17 100.83 13.75 100.83 13.75 105.42 27.5 105.42 27.5 110 32.08 110 32.08 123.75 41.25 123.75 41.25 119.17 45.83 119.17 45.83 105.42 41.25 105.42 41.25 100.83 32.08 100.83"/>
  <polyline class="cls-7" points="73.33 114.58 68.75 114.58 68.75 110 50.42 110 50.42 114.58 45.83 114.58 45.83 119.17 55 119.17 55 128.33 59.58 128.33 59.58 123.75 68.75 123.75 68.75 119.17 73.33 119.17"/>
  <polyline class="cls-14" points="100.19 80.21 86.44 80.21 86.44 75.62 81.85 75.62 81.85 71.04 72.69 71.04 72.69 75.62 63.52 75.62 63.52 71.04 54.35 71.04 54.35 75.62 45.19 75.62 45.19 71.04 40.6 71.04 40.6 80.21 31.44 80.21 31.44 84.79 22.27 84.79 22.27 93.96 36.02 93.96 36.02 89.37 40.6 89.37 40.6 84.79 49.77 84.79 49.77 80.21 54.35 80.21 54.35 84.79 58.94 84.79 58.94 80.21 72.69 80.21 72.69 84.79 68.1 84.79 68.1 89.37 81.85 89.37 81.85 84.79 100.19 84.79"/>
  <polyline class="cls-2" points="100.19 61.87 100.19 57.29 86.44 57.29 86.44 61.87 81.85 61.87 81.85 66.46 95.6 66.46 95.6 71.04 109.35 71.04 109.35 66.46 104.77 66.46 100.19 66.46"/>
  <polyline class="cls-26" points="87.08 50.42 77.92 50.42 77.92 45.83 82.5 45.83 82.5 36.67 73.33 36.67 73.33 32.08 77.92 32.08 77.92 22.92 82.5 22.92 82.5 32.08 87.08 32.08 87.08 36.67 91.67 36.67 91.67 45.83 87.08 45.83"/>
  <polyline class="cls-3" points="73.33 18.33 91.67 18.33 91.67 13.75 96.25 13.75 96.25 9.17 105.42 9.17 105.42 4.58 110 4.58 110 0 100.83 0 100.83 4.58 96.25 4.58 91.67 4.58 91.67 9.17 82.5 9.17 82.5 13.75 73.33 13.75"/>
  <polyline class="cls-16" points="114.58 4.58 114.58 0 128.33 0 128.33 9.17 132.92 9.17 132.92 4.58 137.5 4.58 137.5 0 146.67 0 146.67 4.58 151.25 4.58 151.25 0 160.42 0 160.42 9.17 165 9.17 178.75 9.17 178.75 13.75 192.5 13.75 192.5 18.33 183.33 18.33 183.33 22.92 178.75 22.92 178.75 32.08 169.58 32.08 169.58 36.67 160.42 36.67 160.42 22.92 151.25 22.92 151.25 18.33 146.67 18.33 146.67 13.75 142.08 13.75 142.08 22.92 123.75 22.92 123.75 18.33 119.17 18.33 119.17 13.75 114.58 13.75 110 13.75 110 9.17 114.58 9.17"/>
  <polyline class="cls-5" points="151.25 123.75 151.25 119.17 146.67 119.17 146.67 114.58 137.5 114.58 137.5 110 119.17 110 119.17 114.58 110 114.58 110 119.17 96.25 119.17 96.25 123.75 110 123.75 110 132.92 119.17 132.92 119.17 123.75"/>
  <polyline class="cls-15" points="96.25 132.92 96.25 128.33 91.67 128.33 91.67 119.17 82.5 119.17 82.5 114.58 77.92 114.58 77.92 128.33 82.5 128.33 82.5 132.92"/>
  <polyline class="cls-12" points="177.1 114.58 190.85 114.58 190.85 119.17 177.1 119.17"/>
  <polyline class="cls-24" points="167.93 114.58 195.43 114.58 195.43 110 200.01 110 200.01 100.83 195.43 100.83 195.43 96.25 200.01 96.25 200.01 91.67 190.85 91.67 190.85 87.08 167.69 87.36"/>
  <polyline class="cls-13" points="200.01 128.33 200.01 123.75 204.6 123.75 204.6 119.17 209.18 119.17 209.18 114.58 222.93 114.58 222.93 110 232.1 110 232.1 119.17 236.68 119.17 236.68 123.75 222.93 123.75 222.93 128.33"/>
  <polyline class="cls-25" points="190.85 77.92 190.85 82.5 200.01 82.5 200.01 91.67 204.6 91.67 204.6 100.83 200.01 100.83 200.01 96.25 195.43 96.25 195.43 91.67 190.85 91.67 186.26 91.67 186.26 87.08 177.1 87.08 177.1 97.43 154.18 97.73 154.18 108.23 142.8 108.23 142.8 89.9 171.84 89.9 172.13 83.02 186.95 83.02 187.24 77.92"/>
  <polyline class="cls-22" points="154.18 137.5 186.26 137.5 186.26 132.92 200.01 132.92 200.01 128.33 200.01 123.75 209.18 123.75 209.18 119.17 218.35 119.17 218.35 114.58 227.51 114.58 227.51 110 222.93 110 222.93 105.42 213.76 105.42 213.76 100.83 204.6 100.83 204.6 105.42 200.01 105.42 200.01 110 190.85 110 190.85 114.58 186.26 114.58 186.26 119.17 167.93 119.17 167.93 128.33 154.18 128.33"/>
  <polygon class="cls-29" points="184.59 148.69 184.59 144.11 189.17 144.11 193.76 144.11 193.76 139.53 198.34 139.53 198.34 134.94 202.92 134.94 202.92 130.36 207.51 130.36 207.51 125.78 221.26 125.78 221.26 130.36 230.42 130.36 230.42 134.94 235.01 134.94 235.01 139.53 244.17 139.53 244.17 144.11 248.76 144.11 248.76 148.69 230.42 148.69 230.42 153.28 221.26 153.28 221.26 157.86 207.51 157.86 207.51 153.28 193.76 153.28 193.76 148.69 184.59 148.69"/>
  <polyline class="cls-28" points="202.92 130.36 207.51 130.36 207.51 125.78 216.67 125.78 216.67 130.36 225.84 130.36 225.84 134.94 230.42 134.94 235.01 134.94 235.01 139.53 244.17 139.53 244.17 144.11 257.92 144.11 257.92 139.53 248.76 139.53 248.76 134.94 239.59 134.94 239.59 130.36 230.42 130.36 230.42 121.19 212.09 121.19 202.92 121.19 202.92 125.78 198.34 125.78 198.34 130.36"/>
  <polyline class="cls-27" points="213.76 100.83 222.93 100.83 222.93 105.42 213.76 105.42"/>
  <polyline class="cls-10" points="200.01 82.5 204.6 82.5 204.6 91.67 200.01 91.67"/>
</svg>