<?xml version="1.0" encoding="UTF-8"?>
<svg id="Layer_1" data-name="Layer 1" xmlns="http://www.w3.org/2000/svg" xmlns:xlink="http://www.w3.org/1999/xlink" viewBox="0 0 436.33 206.25">
  <defs>
    <style>
      .cls-1 {
        fill: url(#linear-gradient-12);
      }

      .cls-1, .cls-2, .cls-3, .cls-4, .cls-5, .cls-6, .cls-7, .cls-8, .cls-9, .cls-10, .cls-11, .cls-12, .cls-13, .cls-14, .cls-15, .cls-16, .cls-17, .cls-18, .cls-19, .cls-20 {
        stroke-width: 0px;
      }

      .cls-2 {
        fill: url(#linear-gradient-17);
      }

      .cls-3 {
        fill: url(#linear-gradient-19);
      }

      .cls-4 {
        fill: url(#linear-gradient);
      }

      .cls-5 {
        fill: url(#linear-gradient-6);
      }

      .cls-6 {
        fill: url(#linear-gradient-15);
      }

      .cls-7 {
        fill: url(#linear-gradient-11);
      }

      .cls-8 {
        fill: url(#linear-gradient-5);
      }

      .cls-9 {
        fill: url(#linear-gradient-13);
      }

      .cls-10 {
        fill: url(#linear-gradient-16);
      }

      .cls-11 {
        fill: url(#linear-gradient-20);
      }

      .cls-12 {
        fill: url(#linear-gradient-14);
      }

      .cls-13 {
        fill: url(#linear-gradient-2);
      }

      .cls-14 {
        fill: url(#linear-gradient-7);
      }

      .cls-15 {
        fill: url(#linear-gradient-3);
      }

      .cls-16 {
        fill: url(#linear-gradient-9);
      }

      .cls-17 {
        fill: url(#linear-gradient-8);
      }

      .cls-18 {
        fill: url(#linear-gradient-18);
      }

      .cls-19 {
        fill: url(#linear-gradient-10);
      }

      .cls-20 {
        fill: url(#linear-gradient-4);
      }
    </style>
    <linearGradient id="linear-gradient" x1="209.23" y1="81.83" x2="209.55" y2="212.06" gradientUnits="userSpaceOnUse">
      <stop offset="0" stop-color="#445456" stop-opacity=".7"/>
      <stop offset="1" stop-color="#231f20" stop-opacity="0"/>
    </linearGradient>
    <linearGradient id="linear-gradient-2" x1="299.76" y1="64.9" x2="300.15" y2="229.42" xlink:href="#linear-gradient"/>
    <linearGradient id="linear-gradient-3" x1="103.04" y1="73.87" x2="103.27" y2="169.98" xlink:href="#linear-gradient"/>
    <linearGradient id="linear-gradient-4" x1="26.08" y1="215.12" x2="24.19" y2="57.77" gradientUnits="userSpaceOnUse">
      <stop offset="0" stop-color="#b1b3a5"/>
      <stop offset="1" stop-color="#231f20" stop-opacity="0"/>
    </linearGradient>
    <linearGradient id="linear-gradient-5" x1="98.48" y1="290.37" x2="96.11" y2="92.68" xlink:href="#linear-gradient-4"/>
    <linearGradient id="linear-gradient-6" x1="118.57" y1="336.71" x2="113.34" y2="-99.95" xlink:href="#linear-gradient-4"/>
    <linearGradient id="linear-gradient-7" x1="294.96" y1="-.11" x2="291.64" y2="188.37" gradientUnits="userSpaceOnUse">
      <stop offset="0" stop-color="#fefdf1"/>
      <stop offset="1" stop-color="#231f20" stop-opacity="0"/>
    </linearGradient>
    <linearGradient id="linear-gradient-8" x1="137.89" y1="37.48" x2="137.05" y2="85" xlink:href="#linear-gradient-7"/>
    <linearGradient id="linear-gradient-9" x1="169.24" y1="38.05" x2="168.02" y2="107.31" xlink:href="#linear-gradient-7"/>
    <linearGradient id="linear-gradient-10" x1="112.89" y1="56.12" x2="112.05" y2="103.64" xlink:href="#linear-gradient-7"/>
    <linearGradient id="linear-gradient-11" x1="131.42" y1="-6.32" x2="131" y2="17.45" xlink:href="#linear-gradient-7"/>
    <linearGradient id="linear-gradient-12" x1="147.2" y1="12.74" x2="146.39" y2="59.05" xlink:href="#linear-gradient-7"/>
    <linearGradient id="linear-gradient-13" x1="203.61" y1="75.6" x2="202.39" y2="144.87" xlink:href="#linear-gradient-7"/>
    <linearGradient id="linear-gradient-14" x1="56.58" y1="49.87" x2="55.75" y2="97.39" xlink:href="#linear-gradient-7"/>
    <linearGradient id="linear-gradient-15" x1="19.08" y1="93.62" x2="18.25" y2="141.14" xlink:href="#linear-gradient-7"/>
    <linearGradient id="linear-gradient-16" x1="351.87" y1="115.76" x2="352.1" y2="211.97" xlink:href="#linear-gradient"/>
    <linearGradient id="linear-gradient-17" x1="306.45" y1="278.48" x2="303.85" y2="60.86" xlink:href="#linear-gradient-4"/>
    <linearGradient id="linear-gradient-18" x1="393.85" y1="279.26" x2="391.73" y2="101.74" xlink:href="#linear-gradient-4"/>
    <linearGradient id="linear-gradient-19" x1="414.73" y1="123.51" x2="413.91" y2="170.22" xlink:href="#linear-gradient-7"/>
    <linearGradient id="linear-gradient-20" x1="408.48" y1="160.9" x2="407.65" y2="208.02" xlink:href="#linear-gradient-7"/>
  </defs>
  <polyline class="cls-4" points="200 193.75 200 187.5 181.25 187.5 181.25 193.75 143.75 193.75 143.75 181.25 150 181.25 150 168.75 156.25 168.75 156.25 162.5 168.75 162.5 168.75 150 187.5 150 187.5 131.25 206.25 131.25 206.25 106.25 212.5 106.25 212.5 81.25 225 81.25 225 75 250 75 250 81.25 262.5 81.25 262.5 87.5 275 87.5 275 100 268.75 100 268.75 112.5 250 112.5 250 131.25 243.75 131.25 243.75 150 231.25 150 231.25 168.75 206.25 168.75 206.25 193.75"/>
  <path class="cls-13" d="M225,200h-31.25v-18.75h-6.25v-6.25h12.5s-6.25-12.5,0-12.5h25v-18.75h6.25v-25h43.75v-12.5h6.25v-25h6.25v-6.25h6.25v-12.5h12.5v18.75h12.5v-6.25h6.25v-6.25h6.25v-12.5h25v6.25h12.5v6.25h12.5v6.25h12.5v12.5h-6.25v6.25h-6.25v6.25h-6.25v6.25h6.25v12.5h6.25v18.75h6.25v12.5h18.75v6.25h-18.75v18.75h-12.5v6.25h-12.5v12.5h-25v6.25h-31.25v6.25h-37.5v-12.5h-50"/>
  <polyline class="cls-15" points="31.25 143.75 31.25 150 81.25 150 81.25 143.75 106.25 143.75 106.25 150 125 150 125 143.75 156.25 143.75 156.25 156.25 193.75 156.25 193.75 137.5 181.25 137.5 181.25 131.25 193.75 131.25 193.75 112.5 187.5 112.5 187.5 100 193.75 100 193.75 87.5 175 87.5 175 81.25 162.5 81.25 162.5 68.75 150 68.75 150 75 125 75 125 81.25 93.75 81.25 93.75 87.5 75 87.5 75 100 93.75 100 93.75 106.25 106.25 106.25 106.25 112.5 81.25 112.5 81.25 118.75 56.25 118.75 56.25 112.5 68.75 112.5 68.75 93.75 43.75 93.75 43.75 106.25 37.5 106.25 37.5 112.5 43.75 112.5 43.75 125 12.5 125 12.5 131.25 18.75 131.25 18.75 143.75"/>
  <polyline class="cls-20" points="50 125 50 112.5 43.75 112.5 43.75 106.25 43.75 93.75 31.25 93.75 31.25 100 25 100 25 112.5 18.75 112.5 18.75 118.75 6.25 118.75 6.25 125 0 125 0 137.5 6.25 137.5 6.25 143.75 25 143.75 25 131.25 43.75 131.25 43.75 125"/>
  <polyline class="cls-8" points="31.25 143.75 50 143.75 50 150 68.75 150 68.75 143.75 112.5 143.75 112.5 150 125 150 125 143.75 137.5 143.75 137.5 137.5 162.5 137.5 162.5 150 168.75 150 168.75 162.5 156.25 162.5 156.25 168.75 150 168.75 150 175 156.25 175 156.25 200 125 200 125 193.75 137.5 193.75 137.5 187.5 137.5 181.25 143.75 181.25 143.75 168.75 137.5 168.75 137.5 162.5 131.25 162.5 131.25 168.75 106.25 168.75 106.25 175 87.5 175 87.5 168.75 75 168.75 75 175 56.25 175 56.25 168.75 43.75 168.75 43.75 162.5 25 162.5 25 156.25 43.75 156.25 43.75 150 31.25 150"/>
  <path class="cls-5" d="M62.5,118.75h25v-6.25h25v-6.25h-12.5v-6.25h-18.75v-12.5h12.5v-6.25h25v6.25h18.75v-12.5h12.5v-6.25h12.5v12.5h6.25v12.5h18.75v25h6.25v12.5h6.25v6.25h12.5v-43.75h-6.25v6.25h-6.25v-18.75h-18.75v-6.25h-12.5v-12.5h-6.25v-6.25h6.25v-18.75h-6.25v-6.25h6.25v-6.25h-6.25v-6.25h-6.25v-6.25h-6.25v-6.25h-6.25V0h-18.75v6.25h-6.25v6.25h12.5v6.25h6.25v12.5h-6.25v-6.25h-12.5v6.25h-6.25v12.5h-12.5v6.25h-6.25v6.25h6.25v12.5h-6.25v6.25h-12.5v6.25h-6.25v-12.5h6.25v-6.25h-18.75v6.25h-12.5v6.25h-6.25v-12.5h-12.5v6.25h-6.25v12.5h-6.25v6.25h12.5v-6.25h12.5v6.25h6.25v6.25h12.5v12.5h-6.25v12.5"/>
  <polyline class="cls-14" points="343.75 56.25 343.75 50 325 50 325 62.5 318.75 62.5 318.75 56.25 312.5 56.25 312.5 50 300 50 300 56.25 293.75 56.25 293.75 50 281.25 50 281.25 62.5 275 62.5 256.25 62.5 256.25 68.75 237.5 68.75 237.5 75 250 75 250 81.25 256.25 81.25 256.25 93.75 268.75 93.75 268.75 100 281.25 100 281.25 81.25 293.75 81.25 293.75 75 300 75 300 68.75 306.25 68.75 306.25 81.25 331.25 81.25 331.25 75 337.5 75 337.5 68.75 343.75 68.75 350 68.75 350 62.5 343.75 62.5"/>
  <polyline class="cls-17" points="118.75 62.5 131.25 62.5 131.25 56.25 137.5 56.25 137.5 62.5 156.25 62.5 156.25 56.25 143.75 56.25 143.75 50 125 50 125 56.25 118.75 56.25"/>
  <polyline class="cls-16" points="162.5 56.25 175 56.25 175 75 168.75 75 168.75 68.75 168.75 62.5 162.5 62.5"/>
  <polyline class="cls-19" points="125 81.25 100 81.25 100 75 112.5 75 112.5 68.75 125 68.75"/>
  <polyline class="cls-7" points="125 6.25 137.5 6.25 137.5 0 125 0"/>
  <polyline class="cls-1" points="137.5 25 156.25 25 156.25 37.5 150 37.5 150 31.25 137.5 31.25"/>
  <polyline class="cls-9" points="200 93.75 206.25 93.75 206.25 112.5 200 112.5"/>
  <polyline class="cls-12" points="43.75 68.75 56.25 68.75 56.25 62.5 68.75 62.5 68.75 68.75 62.5 68.75 62.5 75 43.75 75"/>
  <polyline class="cls-6" points="6.25 118.75 6.25 112.5 12.5 112.5 12.5 106.25 31.25 106.25 31.25 112.5 18.75 112.5 18.75 118.75"/>
  <polygon class="cls-10" points="323.83 192.13 348.83 192.13 348.83 198.38 380.08 198.38 380.08 185.88 398.83 185.88 398.83 179.63 392.58 179.63 392.58 173.38 398.83 173.38 398.83 167.13 417.58 167.13 417.58 160.88 417.58 154.63 405.08 154.63 405.08 142.13 392.58 142.13 392.58 148.38 386.33 148.38 386.33 135.88 380.08 135.88 380.08 129.63 361.33 129.63 361.33 135.88 342.58 135.88 342.58 129.63 348.83 129.63 348.83 123.38 330.08 123.38 330.08 117.13 317.58 117.13 317.58 110.88 298.83 110.88 298.83 123.38 292.58 123.38 292.58 129.63 298.83 129.63 298.83 135.88 298.83 142.13 286.33 142.13 286.33 148.38 298.83 148.38 298.83 160.88 305.08 160.88 305.08 167.13 330.08 167.13 330.08 173.38 317.58 173.38 317.58 179.63 305.08 179.63 305.08 185.88 323.83 185.88 323.83 192.13"/>
  <polyline class="cls-2" points="305.08 110.88 292.58 110.88 292.58 117.13 286.33 117.13 286.33 135.88 280.08 135.88 280.08 148.38 286.33 148.38 286.33 154.63 280.08 154.63 280.08 160.88 292.58 160.88 292.58 167.13 298.83 167.13 298.83 173.38 311.33 173.38 311.33 179.63 317.58 179.63 317.58 173.38 330.08 173.38 330.08 167.13 311.33 167.13 311.33 160.88 305.08 160.88 305.08 154.63 298.83 154.63 298.83 142.13 305.08 142.13 305.08 129.63 298.83 129.63 298.83 117.13 305.08 117.13"/>
  <polyline class="cls-18" points="348.83 192.13 367.58 192.13 367.58 185.88 398.83 185.88 398.83 179.63 392.58 179.63 392.58 173.38 392.58 167.13 417.58 167.13 417.58 160.88 411.33 160.88 411.33 148.38 417.58 148.38 417.58 142.13 430.08 142.13 430.08 148.38 436.33 148.38 436.33 154.63 430.08 154.63 430.08 160.88 423.83 160.88 423.83 173.38 411.33 173.38 411.33 179.63 417.58 179.63 417.58 185.88 423.83 185.88 423.83 198.38 392.58 198.38 392.58 192.13 373.83 192.13 373.83 198.38 348.83 198.38"/>
  <polyline class="cls-3" points="405.08 135.88 423.83 135.88 423.83 142.13 417.58 142.13 417.58 148.38 411.33 148.38 411.33 142.13 405.08 142.13"/>
  <path class="cls-11" d="M398.83,173.38h18.75v6.25h-12.5v6.25h-6.25"/>
</svg>