<?xml version="1.0" encoding="UTF-8"?>
<svg id="Layer_1" data-name="Layer 1" xmlns="http://www.w3.org/2000/svg" xmlns:xlink="http://www.w3.org/1999/xlink" viewBox="0 0 154.88 39.56">
  <defs>
    <style>
      .cls-1 {
        fill: url(#linear-gradient);
      }

      .cls-1, .cls-2, .cls-3, .cls-4, .cls-5 {
        stroke-width: 0px;
      }

      .cls-2 {
        fill: url(#linear-gradient-5);
      }

      .cls-3 {
        fill: url(#linear-gradient-2);
      }

      .cls-4 {
        fill: url(#linear-gradient-3);
      }

      .cls-5 {
        fill: url(#linear-gradient-4);
      }
    </style>
    <linearGradient id="linear-gradient" x1="518.2" y1="9.76" x2="518.25" y2="29.1" gradientTransform="translate(550.69) rotate(-180) scale(1 -1)" gradientUnits="userSpaceOnUse">
      <stop offset="0" stop-color="#445456" stop-opacity=".7"/>
      <stop offset="1" stop-color="#231f20" stop-opacity="0"/>
    </linearGradient>
    <linearGradient id="linear-gradient-2" x1="473.95" y1="84.6" x2="472.77" y2="-13.71" gradientTransform="translate(550.69) rotate(-180) scale(1 -1)" gradientUnits="userSpaceOnUse">
      <stop offset="0" stop-color="#b1b3a5"/>
      <stop offset="1" stop-color="#231f20" stop-opacity="0"/>
    </linearGradient>
    <linearGradient id="linear-gradient-3" x1="496.15" y1="-17.21" x2="495.01" y2="48.01" gradientTransform="translate(550.69) rotate(-180) scale(1 -1)" gradientUnits="userSpaceOnUse">
      <stop offset="0" stop-color="#fefdf1"/>
      <stop offset="1" stop-color="#231f20" stop-opacity="0"/>
    </linearGradient>
    <linearGradient id="linear-gradient-4" x1="426.36" y1="-21.17" x2="424.93" y2="59.55" xlink:href="#linear-gradient-3"/>
    <linearGradient id="linear-gradient-5" x1="466.3" y1="-12.98" x2="465.14" y2="52.89" xlink:href="#linear-gradient-3"/>
  </defs>
  <polygon class="cls-1" points="14.99 21.98 14.99 17.58 9.99 17.58 9.99 13.19 34.97 13.19 34.97 8.79 49.96 8.79 49.96 13.19 54.96 13.19 54.96 21.98 49.96 21.98 49.96 26.38 29.98 26.38 29.98 21.98 14.99 21.98"/>
  <polyline class="cls-3" points="154.88 26.38 149.88 26.38 149.88 17.58 139.89 17.58 139.89 21.98 124.9 21.98 124.9 26.38 119.91 26.38 119.91 30.77 114.91 30.77 114.91 35.17 104.92 35.17 104.92 39.56 89.93 39.56 89.93 35.17 79.94 35.17 79.94 39.56 64.95 39.56 64.95 35.17 49.96 35.17 49.96 39.56 39.97 39.56 39.97 35.17 24.98 35.17 24.98 30.77 0 30.77 0 26.38 14.99 26.38 14.99 21.98 39.97 21.98 39.97 26.38 49.96 26.38 49.96 17.58 54.96 17.58 54.96 8.79 74.94 8.79 74.94 17.58 79.94 17.58 79.94 21.98 94.93 21.98 94.93 13.19 109.92 13.19 109.92 21.98 119.91 21.98 119.91 13.19 154.88 13.19"/>
  <polyline class="cls-4" points="69.95 4.4 64.95 4.4 64.95 0 44.97 0 44.97 4.4 39.97 4.4 39.97 8.79 49.96 8.79 49.96 17.58 54.96 17.58 54.96 13.19 64.95 13.19 64.95 8.79 69.95 8.79"/>
  <polyline class="cls-5" points="154.88 13.19 154.88 8.79 149.88 8.79 149.88 4.4 139.89 4.4 139.89 0 119.91 0 119.91 4.4 109.92 4.4 109.92 8.79 94.93 8.79 94.93 13.19 109.92 13.19 109.92 21.98 119.91 21.98 119.91 13.19"/>
  <polyline class="cls-2" points="94.93 21.98 94.93 17.58 89.93 17.58 89.93 8.79 79.94 8.79 79.94 4.4 74.94 4.4 74.94 17.58 79.94 17.58 79.94 21.98"/>
</svg>