<?xml version="1.0" encoding="UTF-8"?>
<svg id="Layer_1" data-name="Layer 1" xmlns="http://www.w3.org/2000/svg" xmlns:xlink="http://www.w3.org/1999/xlink" viewBox="0 0 431.25 112.5">
  <defs>
    <style>
      .cls-1 {
        fill: url(#linear-gradient-12);
      }

      .cls-1, .cls-2, .cls-3, .cls-4, .cls-5, .cls-6, .cls-7, .cls-8, .cls-9, .cls-10, .cls-11, .cls-12, .cls-13, .cls-14, .cls-15, .cls-16, .cls-17, .cls-18, .cls-19, .cls-20, .cls-21, .cls-22, .cls-23 {
        stroke-width: 0px;
      }

      .cls-2 {
        fill: url(#linear-gradient-17);
      }

      .cls-3 {
        fill: url(#linear-gradient-19);
      }

      .cls-4 {
        fill: url(#linear-gradient);
      }

      .cls-5 {
        fill: url(#linear-gradient-21);
      }

      .cls-6 {
        fill: url(#linear-gradient-6);
      }

      .cls-7 {
        fill: url(#linear-gradient-15);
      }

      .cls-8 {
        fill: url(#linear-gradient-11);
      }

      .cls-9 {
        fill: url(#linear-gradient-5);
      }

      .cls-10 {
        fill: url(#linear-gradient-13);
      }

      .cls-11 {
        fill: url(#linear-gradient-23);
      }

      .cls-12 {
        fill: url(#linear-gradient-16);
      }

      .cls-13 {
        fill: url(#linear-gradient-22);
      }

      .cls-14 {
        fill: url(#linear-gradient-20);
      }

      .cls-15 {
        fill: url(#linear-gradient-14);
      }

      .cls-16 {
        fill: url(#linear-gradient-2);
      }

      .cls-17 {
        fill: url(#linear-gradient-7);
      }

      .cls-18 {
        fill: url(#linear-gradient-3);
      }

      .cls-19 {
        fill: url(#linear-gradient-9);
      }

      .cls-20 {
        fill: url(#linear-gradient-8);
      }

      .cls-21 {
        fill: url(#linear-gradient-18);
      }

      .cls-22 {
        fill: url(#linear-gradient-10);
      }

      .cls-23 {
        fill: url(#linear-gradient-4);
      }
    </style>
    <linearGradient id="linear-gradient" x1="346.79" y1="29.89" x2="347.02" y2="126.1" gradientUnits="userSpaceOnUse">
      <stop offset="0" stop-color="#445456" stop-opacity=".7"/>
      <stop offset="1" stop-color="#231f20" stop-opacity="0"/>
    </linearGradient>
    <linearGradient id="linear-gradient-2" x1="231.23" y1="88.56" x2="231.28" y2="109.21" xlink:href="#linear-gradient"/>
    <linearGradient id="linear-gradient-3" x1="171.85" y1="70.59" x2="171.93" y2="104.8" xlink:href="#linear-gradient"/>
    <linearGradient id="linear-gradient-4" x1="99.99" y1="88.18" x2="100.02" y2="101.99" xlink:href="#linear-gradient"/>
    <linearGradient id="linear-gradient-5" x1="140.5" y1="16.78" x2="140.7" y2="99.06" xlink:href="#linear-gradient"/>
    <linearGradient id="linear-gradient-6" x1="301.37" y1="192.61" x2="298.76" y2="-25.02" gradientUnits="userSpaceOnUse">
      <stop offset="0" stop-color="#b1b3a5"/>
      <stop offset="1" stop-color="#231f20" stop-opacity="0"/>
    </linearGradient>
    <linearGradient id="linear-gradient-7" x1="388.77" y1="193.39" x2="386.64" y2="15.87" xlink:href="#linear-gradient-6"/>
    <linearGradient id="linear-gradient-8" x1="241.25" y1="145.54" x2="240.05" y2="45.87" xlink:href="#linear-gradient-6"/>
    <linearGradient id="linear-gradient-9" x1="222.18" y1="131.96" x2="221.68" y2="89.97" xlink:href="#linear-gradient-6"/>
    <linearGradient id="linear-gradient-10" x1="107.72" y1="169.91" x2="105.38" y2="-25.9" xlink:href="#linear-gradient-6"/>
    <linearGradient id="linear-gradient-11" x1="176.75" y1="183.58" x2="173.89" y2="-55.16" xlink:href="#linear-gradient-6"/>
    <linearGradient id="linear-gradient-12" x1="109.82" y1="128.03" x2="109.09" y2="66.81" xlink:href="#linear-gradient-6"/>
    <linearGradient id="linear-gradient-13" x1="53.97" y1="117.3" x2="52.53" y2="-2.78" xlink:href="#linear-gradient-6"/>
    <linearGradient id="linear-gradient-14" x1="169.55" y1="-29.55" x2="167.55" y2="84" gradientUnits="userSpaceOnUse">
      <stop offset="0" stop-color="#fefdf1"/>
      <stop offset="1" stop-color="#231f20" stop-opacity="0"/>
    </linearGradient>
    <linearGradient id="linear-gradient-15" x1="128.61" y1="-12" x2="127.38" y2="57.67" xlink:href="#linear-gradient-14"/>
    <linearGradient id="linear-gradient-16" x1="216.17" y1="50.5" x2="214.94" y2="120.17" xlink:href="#linear-gradient-14"/>
    <linearGradient id="linear-gradient-17" x1="237.83" y1="69.04" x2="237.01" y2="115.35" xlink:href="#linear-gradient-14"/>
    <linearGradient id="linear-gradient-18" x1="409.65" y1="37.63" x2="408.83" y2="84.35" xlink:href="#linear-gradient-14"/>
    <linearGradient id="linear-gradient-19" x1="403.4" y1="75.03" x2="402.57" y2="122.15" xlink:href="#linear-gradient-14"/>
    <linearGradient id="linear-gradient-20" x1="284.76" y1="31.28" x2="283.93" y2="78.4" xlink:href="#linear-gradient-14"/>
    <linearGradient id="linear-gradient-21" x1="100.6" y1="25.44" x2="99.37" y2="95.11" xlink:href="#linear-gradient-14"/>
    <linearGradient id="linear-gradient-22" x1="6.73" y1="6.91" x2="5.51" y2="76.17" xlink:href="#linear-gradient-14"/>
    <linearGradient id="linear-gradient-23" x1="56.64" y1="12.48" x2="55.8" y2="60" xlink:href="#linear-gradient-14"/>
  </defs>
  <polygon class="cls-4" points="318.75 106.25 343.75 106.25 343.75 112.5 375 112.5 375 100 393.75 100 393.75 93.75 387.5 93.75 387.5 87.5 393.75 87.5 393.75 81.25 412.5 81.25 412.5 75 412.5 68.75 400 68.75 400 56.25 387.5 56.25 387.5 62.5 381.25 62.5 381.25 50 375 50 375 43.75 356.25 43.75 356.25 50 337.5 50 337.5 43.75 343.75 43.75 343.75 37.5 325 37.5 325 31.25 312.5 31.25 312.5 25 293.75 25 293.75 37.5 287.5 37.5 287.5 43.75 293.75 43.75 293.75 50 293.75 56.25 281.25 56.25 281.25 62.5 293.75 62.5 293.75 75 300 75 300 81.25 325 81.25 325 87.5 312.5 87.5 312.5 93.75 300 93.75 300 100 318.75 100 318.75 106.25"/>
  <polyline class="cls-16" points="206.25 100 206.25 93.75 225 93.75 225 87.5 237.5 87.5 237.5 93.75 256.25 93.75 256.25 106.25 218.75 106.25 218.75 100"/>
  <polyline class="cls-18" points="131.25 93.75 162.5 93.75 162.5 100 168.75 100 168.75 93.75 193.75 93.75 193.75 87.5 206.25 87.5 206.25 81.25 212.5 81.25 212.5 68.75 200 68.75 193.75 68.75 193.75 75 175 75 175 81.25 143.75 81.25 143.75 87.5 131.25 87.5"/>
  <polyline class="cls-23" points="100 100 118.75 100 118.75 93.75 112.5 93.75 112.5 87.5 81.25 87.5 81.25 93.75 100 93.75"/>
  <polyline class="cls-9" points="93.75 81.25 118.75 81.25 118.75 87.5 137.5 87.5 137.5 81.25 162.5 81.25 162.5 75 181.25 75 181.25 68.75 187.5 68.75 187.5 56.25 181.25 56.25 181.25 50 181.25 43.75 175 43.75 175 37.5 168.75 37.5 168.75 43.75 162.5 43.75 162.5 31.25 156.25 31.25 156.25 25 150 25 150 12.5 137.5 12.5 137.5 25 131.25 25 131.25 31.25 125 31.25 125 43.75 131.25 43.75 131.25 50 118.75 50 118.75 37.5 112.5 37.5 112.5 62.5 106.25 62.5 106.25 68.75 93.75 68.75"/>
  <polyline class="cls-6" points="300 25 287.5 25 287.5 31.25 281.25 31.25 281.25 50 275 50 275 62.5 281.25 62.5 281.25 68.75 275 68.75 275 75 287.5 75 287.5 81.25 293.75 81.25 293.75 87.5 306.25 87.5 306.25 93.75 312.5 93.75 312.5 87.5 325 87.5 325 81.25 306.25 81.25 306.25 75 300 75 300 68.75 293.75 68.75 293.75 56.25 300 56.25 300 43.75 293.75 43.75 293.75 31.25 300 31.25"/>
  <polyline class="cls-17" points="343.75 106.25 362.5 106.25 362.5 100 393.75 100 393.75 93.75 387.5 93.75 387.5 87.5 387.5 81.25 412.5 81.25 412.5 75 406.25 75 406.25 62.5 412.5 62.5 412.5 56.25 425 56.25 425 62.5 431.25 62.5 431.25 68.75 425 68.75 425 75 418.75 75 418.75 87.5 406.25 87.5 406.25 93.75 412.5 93.75 412.5 100 418.75 100 418.75 112.5 387.5 112.5 387.5 106.25 368.75 106.25 368.75 112.5 343.75 112.5"/>
  <polyline class="cls-20" points="193.75 100 193.75 93.75 200 93.75 200 87.5 218.75 87.5 218.75 81.25 225 81.25 225 75 237.5 75 237.5 68.75 250 68.75 250 75 256.25 75 256.25 81.25 262.5 81.25 262.5 87.5 287.5 87.5 287.5 93.75 268.75 93.75 268.75 100 256.25 100 250 100 250 93.75 243.75 93.75 243.75 81.25 231.25 81.25 231.25 93.75 206.25 93.75 206.25 100"/>
  <polyline class="cls-19" points="256.25 106.25 218.75 106.25 218.75 100 187.5 100 187.5 106.25 212.5 106.25 212.5 112.5 256.25 112.5"/>
  <polyline class="cls-22" points="118.75 50 131.25 50 131.25 43.75 125 43.75 125 37.5 131.25 37.5 131.25 25 137.5 25 137.5 18.75 125 18.75 125 25 118.75 25 118.75 31.25 106.25 31.25 106.25 43.75 100 43.75 100 62.5 87.5 62.5 87.5 68.75 75 68.75 75 75 87.5 75 87.5 81.25 93.75 81.25 93.75 68.75 112.5 68.75 112.5 56.25 118.75 56.25"/>
  <polyline class="cls-8" points="137.5 12.5 131.25 12.5 131.25 6.25 137.5 6.25 137.5 0 150 0 150 6.25 162.5 6.25 162.5 12.5 168.75 12.5 168.75 18.75 175 18.75 175 25 187.5 25 187.5 18.75 200 18.75 200 25 206.25 25 206.25 31.25 200 31.25 200 37.5 193.75 37.5 193.75 43.75 200 43.75 200 56.25 206.25 56.25 206.25 50 212.5 50 212.5 62.5 218.75 62.5 218.75 68.75 200 68.75 200 75 175 75 175 68.75 181.25 68.75 181.25 43.75 162.5 43.75 162.5 37.5 156.25 37.5 156.25 31.25 150 31.25 150 25 143.75 25 143.75 12.5"/>
  <polyline class="cls-1" points="75 87.5 75 81.25 125 81.25 125 87.5 137.5 87.5 137.5 81.25 150 81.25 150 93.75 131.25 93.75 131.25 100 93.75 100 93.75 93.75 87.5 93.75 87.5 100 68.75 100 68.75 93.75 81.25 93.75 81.25 87.5"/>
  <polyline class="cls-10" points="18.75 50 18.75 43.75 25 43.75 25 31.25 31.25 31.25 31.25 25 37.5 25 37.5 31.25 62.5 31.25 62.5 25 75 25 75 31.25 81.25 31.25 81.25 43.75 87.5 43.75 87.5 56.25 81.25 56.25 81.25 62.5 68.75 62.5 68.75 56.25 56.25 56.25 56.25 50 43.75 50 43.75 37.5 37.5 37.5 37.5 50"/>
  <polyline class="cls-15" points="150 0 162.5 0 162.5 12.5 175 12.5 175 18.75 187.5 18.75 187.5 31.25 181.25 31.25 181.25 25 168.75 25 168.75 18.75 162.5 18.75 156.25 18.75 156.25 6.25 150 6.25"/>
  <polyline class="cls-7" points="131.25 6.25 131.25 12.5 137.5 12.5 137.5 18.75 125 18.75 125 25 118.75 25 118.75 12.5 125 12.5 125 6.25"/>
  <polyline class="cls-12" points="206.25 87.5 206.25 81.25 212.5 81.25 212.5 68.75 218.75 68.75 218.75 75 225 75 225 81.25 218.75 81.25 218.75 87.5"/>
  <polyline class="cls-2" points="231.25 81.25 243.75 81.25 243.75 93.75 237.5 93.75 237.5 87.5 231.25 87.5"/>
  <polyline class="cls-21" points="400 50 418.75 50 418.75 56.25 412.5 56.25 412.5 62.5 406.25 62.5 406.25 56.25 400 56.25"/>
  <path class="cls-3" d="M393.75,87.5h18.75v6.25h-12.5v6.25h-6.25"/>
  <polyline class="cls-14" points="275 56.25 293.75 56.25 293.75 43.75 287.5 43.75 287.5 50 275 50"/>
  <polyline class="cls-5" points="93.75 62.5 93.75 56.25 100 56.25 100 43.75 106.25 43.75 106.25 62.5"/>
  <polyline class="cls-13" points="0 25 6.25 25 6.25 37.5 12.5 37.5 12.5 43.75 0 43.75"/>
  <polyline class="cls-11" points="37.5 31.25 50 31.25 50 25 62.5 25 62.5 31.25 75 31.25 75 37.5 37.5 37.5"/>
</svg>