<?xml version="1.0" encoding="UTF-8"?>
<svg id="Layer_1" data-name="Layer 1" xmlns="http://www.w3.org/2000/svg" xmlns:xlink="http://www.w3.org/1999/xlink" viewBox="0 0 548.35 206.25">
  <defs>
    <style>
      .cls-1 {
        fill: url(#linear-gradient-38);
      }

      .cls-1, .cls-2, .cls-3, .cls-4, .cls-5, .cls-6, .cls-7, .cls-8, .cls-9, .cls-10, .cls-11, .cls-12, .cls-13, .cls-14, .cls-15, .cls-16, .cls-17, .cls-18, .cls-19, .cls-20, .cls-21, .cls-22, .cls-23, .cls-24, .cls-25, .cls-26, .cls-27, .cls-28, .cls-29, .cls-30, .cls-31, .cls-32, .cls-33, .cls-34, .cls-35, .cls-36, .cls-37, .cls-38, .cls-39, .cls-40, .cls-41, .cls-42, .cls-43, .cls-44, .cls-45, .cls-46, .cls-47, .cls-48, .cls-49, .cls-50, .cls-51, .cls-52, .cls-53, .cls-54, .cls-55, .cls-56, .cls-57, .cls-58, .cls-59, .cls-60, .cls-61, .cls-62, .cls-63, .cls-64, .cls-65, .cls-66, .cls-67, .cls-68, .cls-69, .cls-70, .cls-71, .cls-72, .cls-73, .cls-74, .cls-75, .cls-76, .cls-77, .cls-78, .cls-79, .cls-80, .cls-81, .cls-82, .cls-83, .cls-84, .cls-85, .cls-86, .cls-87, .cls-88, .cls-89, .cls-90, .cls-91, .cls-92, .cls-93, .cls-94, .cls-95, .cls-96, .cls-97, .cls-98, .cls-99, .cls-100, .cls-101, .cls-102, .cls-103, .cls-104, .cls-105, .cls-106, .cls-107, .cls-108 {
        stroke-width: 0px;
      }

      .cls-2 {
        fill: url(#linear-gradient-12);
      }

      .cls-3 {
        fill: url(#linear-gradient-17);
      }

      .cls-4 {
        fill: url(#linear-gradient-88);
      }

      .cls-5 {
        fill: url(#linear-gradient-19);
      }

      .cls-6 {
        fill: url(#linear-gradient-33);
      }

      .cls-7 {
        fill: url(#linear-gradient);
      }

      .cls-8 {
        fill: url(#linear-gradient-62);
      }

      .cls-9 {
        fill: url(#linear-gradient-92);
      }

      .cls-10 {
        fill: url(#linear-gradient-98);
      }

      .cls-11 {
        fill: url(#linear-gradient-67);
      }

      .cls-12 {
        fill: url(#linear-gradient-57);
      }

      .cls-13 {
        fill: url(#linear-gradient-21);
      }

      .cls-14 {
        fill: url(#linear-gradient-6);
      }

      .cls-15 {
        fill: url(#linear-gradient-76);
      }

      .cls-16 {
        fill: url(#linear-gradient-42);
      }

      .cls-17 {
        fill: url(#linear-gradient-104);
      }

      .cls-18 {
        fill: url(#linear-gradient-95);
      }

      .cls-19 {
        fill: url(#linear-gradient-15);
      }

      .cls-20 {
        fill: url(#linear-gradient-11);
      }

      .cls-21 {
        fill: url(#linear-gradient-106);
      }

      .cls-22 {
        fill: url(#linear-gradient-101);
      }

      .cls-23 {
        fill: url(#linear-gradient-81);
      }

      .cls-24 {
        fill: url(#linear-gradient-73);
      }

      .cls-25 {
        fill: url(#linear-gradient-91);
      }

      .cls-26 {
        fill: url(#linear-gradient-5);
      }

      .cls-27 {
        fill: url(#linear-gradient-31);
      }

      .cls-28 {
        fill: url(#linear-gradient-103);
      }

      .cls-29 {
        fill: url(#linear-gradient-71);
      }

      .cls-30 {
        fill: url(#linear-gradient-58);
      }

      .cls-31 {
        fill: url(#linear-gradient-63);
      }

      .cls-32 {
        fill: url(#linear-gradient-34);
      }

      .cls-33 {
        fill: url(#linear-gradient-96);
      }

      .cls-34 {
        fill: url(#linear-gradient-41);
      }

      .cls-35 {
        fill: url(#linear-gradient-89);
      }

      .cls-36 {
        fill: url(#linear-gradient-40);
      }

      .cls-37 {
        fill: url(#linear-gradient-66);
      }

      .cls-38 {
        fill: url(#linear-gradient-13);
      }

      .cls-39 {
        fill: url(#linear-gradient-23);
      }

      .cls-40 {
        fill: url(#linear-gradient-25);
      }

      .cls-41 {
        fill: url(#linear-gradient-43);
      }

      .cls-42 {
        fill: url(#linear-gradient-16);
      }

      .cls-43 {
        fill: url(#linear-gradient-22);
      }

      .cls-44 {
        fill: url(#linear-gradient-54);
      }

      .cls-45 {
        fill: url(#linear-gradient-55);
      }

      .cls-46 {
        fill: url(#linear-gradient-35);
      }

      .cls-47 {
        fill: url(#linear-gradient-50);
      }

      .cls-48 {
        fill: url(#linear-gradient-32);
      }

      .cls-49 {
        fill: url(#linear-gradient-60);
      }

      .cls-50 {
        fill: url(#linear-gradient-59);
      }

      .cls-51 {
        fill: url(#linear-gradient-20);
      }

      .cls-52 {
        fill: url(#linear-gradient-14);
      }

      .cls-53 {
        fill: url(#linear-gradient-2);
      }

      .cls-54 {
        fill: url(#linear-gradient-52);
      }

      .cls-55 {
        fill: url(#linear-gradient-45);
      }

      .cls-56 {
        fill: url(#linear-gradient-93);
      }

      .cls-57 {
        fill: url(#linear-gradient-7);
      }

      .cls-58 {
        fill: url(#linear-gradient-39);
      }

      .cls-59 {
        fill: url(#linear-gradient-3);
      }

      .cls-60 {
        fill: url(#linear-gradient-77);
      }

      .cls-61 {
        fill: url(#linear-gradient-69);
      }

      .cls-62 {
        fill: url(#linear-gradient-94);
      }

      .cls-63 {
        fill: url(#linear-gradient-9);
      }

      .cls-64 {
        fill: url(#linear-gradient-27);
      }

      .cls-65 {
        fill: url(#linear-gradient-100);
      }

      .cls-66 {
        fill: url(#linear-gradient-82);
      }

      .cls-67 {
        fill: url(#linear-gradient-105);
      }

      .cls-68 {
        fill: url(#linear-gradient-83);
      }

      .cls-69 {
        fill: url(#linear-gradient-53);
      }

      .cls-70 {
        fill: url(#linear-gradient-90);
      }

      .cls-71 {
        fill: url(#linear-gradient-85);
      }

      .cls-72 {
        fill: url(#linear-gradient-65);
      }

      .cls-73 {
        fill: url(#linear-gradient-36);
      }

      .cls-74 {
        fill: url(#linear-gradient-48);
      }

      .cls-75 {
        fill: url(#linear-gradient-49);
      }

      .cls-76 {
        fill: url(#linear-gradient-8);
      }

      .cls-77 {
        fill: url(#linear-gradient-47);
      }

      .cls-78 {
        fill: url(#linear-gradient-24);
      }

      .cls-79 {
        fill: url(#linear-gradient-26);
      }

      .cls-80 {
        fill: url(#linear-gradient-61);
      }

      .cls-81 {
        fill: url(#linear-gradient-18);
      }

      .cls-82 {
        fill: url(#linear-gradient-51);
      }

      .cls-83 {
        fill: url(#linear-gradient-30);
      }

      .cls-84 {
        fill: url(#linear-gradient-44);
      }

      .cls-85 {
        fill: url(#linear-gradient-84);
      }

      .cls-86 {
        fill: url(#linear-gradient-97);
      }

      .cls-87 {
        fill: url(#linear-gradient-68);
      }

      .cls-88 {
        fill: url(#linear-gradient-72);
      }

      .cls-89 {
        fill: url(#linear-gradient-29);
      }

      .cls-90 {
        fill: url(#linear-gradient-46);
      }

      .cls-91 {
        fill: url(#linear-gradient-64);
      }

      .cls-92 {
        fill: url(#linear-gradient-107);
      }

      .cls-93 {
        fill: url(#linear-gradient-28);
      }

      .cls-94 {
        fill: url(#linear-gradient-56);
      }

      .cls-95 {
        fill: url(#linear-gradient-99);
      }

      .cls-96 {
        fill: url(#linear-gradient-10);
      }

      .cls-97 {
        fill: url(#linear-gradient-87);
      }

      .cls-98 {
        fill: url(#linear-gradient-70);
      }

      .cls-99 {
        fill: url(#linear-gradient-78);
      }

      .cls-100 {
        fill: url(#linear-gradient-86);
      }

      .cls-101 {
        fill: url(#linear-gradient-74);
      }

      .cls-102 {
        fill: url(#linear-gradient-102);
      }

      .cls-103 {
        fill: url(#linear-gradient-4);
      }

      .cls-104 {
        fill: url(#linear-gradient-37);
      }

      .cls-105 {
        fill: url(#linear-gradient-80);
      }

      .cls-106 {
        fill: url(#linear-gradient-79);
      }

      .cls-107 {
        fill: url(#linear-gradient-108);
      }

      .cls-108 {
        fill: url(#linear-gradient-75);
      }
    </style>
    <linearGradient id="linear-gradient" x1="885.39" y1="171.68" x2="885.88" y2="145.28" gradientTransform="translate(1023.05) rotate(-180) scale(1 -1)" gradientUnits="userSpaceOnUse">
      <stop offset="0" stop-color="#445456" stop-opacity=".7"/>
      <stop offset="1" stop-color="#231f20" stop-opacity="0"/>
    </linearGradient>
    <linearGradient id="linear-gradient-2" x1="905.09" y1="164.9" x2="906.51" y2="132.2" xlink:href="#linear-gradient"/>
    <linearGradient id="linear-gradient-3" x1="944.68" y1="175.59" x2="945.54" y2="155.74" xlink:href="#linear-gradient"/>
    <linearGradient id="linear-gradient-4" x1="983.87" y1="177.05" x2="984.3" y2="167.22" xlink:href="#linear-gradient"/>
    <linearGradient id="linear-gradient-5" x1="841.78" y1="159.01" x2="842.22" y2="148.79" xlink:href="#linear-gradient"/>
    <linearGradient id="linear-gradient-6" x1="842.81" y1="163.8" x2="841.73" y2="137.5" xlink:href="#linear-gradient"/>
    <linearGradient id="linear-gradient-7" x1="839.69" y1="73.43" x2="839.91" y2="164.04" xlink:href="#linear-gradient"/>
    <linearGradient id="linear-gradient-8" x1="878.64" y1="83.81" x2="878.7" y2="108.99" xlink:href="#linear-gradient"/>
    <linearGradient id="linear-gradient-9" x1="752.61" y1="115.9" x2="752.67" y2="141.07" xlink:href="#linear-gradient"/>
    <linearGradient id="linear-gradient-10" x1="770.94" y1="134.19" x2="771" y2="159.45" xlink:href="#linear-gradient"/>
    <linearGradient id="linear-gradient-11" x1="731.99" y1="133.93" x2="732.04" y2="154.09" xlink:href="#linear-gradient"/>
    <linearGradient id="linear-gradient-12" x1="663.2" y1="145.67" x2="663.37" y2="216.22" xlink:href="#linear-gradient"/>
    <linearGradient id="linear-gradient-13" x1="731.98" y1="92.95" x2="732.04" y2="118.14" xlink:href="#linear-gradient"/>
    <linearGradient id="linear-gradient-14" x1="709.08" y1="70.32" x2="709.15" y2="100.51" xlink:href="#linear-gradient"/>
    <linearGradient id="linear-gradient-15" x1="738.87" y1="37.43" x2="738.9" y2="52.58" xlink:href="#linear-gradient"/>
    <linearGradient id="linear-gradient-16" x1="743.98" y1="69.69" x2="743.11" y2="-2.88" xlink:href="#linear-gradient"/>
    <linearGradient id="linear-gradient-17" x1="766.35" y1="88.64" x2="766.42" y2="118.86" xlink:href="#linear-gradient"/>
    <linearGradient id="linear-gradient-18" x1="637.87" y1="24.64" x2="638.16" y2="145.29" xlink:href="#linear-gradient"/>
    <linearGradient id="linear-gradient-19" x1="555.54" y1="97.81" x2="555.61" y2="128.03" xlink:href="#linear-gradient"/>
    <linearGradient id="linear-gradient-20" x1="656.35" y1="83.8" x2="656.41" y2="109.02" xlink:href="#linear-gradient"/>
    <linearGradient id="linear-gradient-21" x1="796.91" y1="198.5" x2="795.54" y2="83.8" gradientTransform="translate(1023.05) rotate(-180) scale(1 -1)" gradientUnits="userSpaceOnUse">
      <stop offset="0" stop-color="#b1b3a5"/>
      <stop offset="1" stop-color="#231f20" stop-opacity="0"/>
    </linearGradient>
    <linearGradient id="linear-gradient-22" x1="840.25" y1="175.24" x2="839.38" y2="102.5" xlink:href="#linear-gradient-21"/>
    <linearGradient id="linear-gradient-23" x1="900.2" y1="219.41" x2="898.64" y2="89.23" xlink:href="#linear-gradient-21"/>
    <linearGradient id="linear-gradient-24" x1="918.43" y1="230.8" x2="917.05" y2="115.92" xlink:href="#linear-gradient-21"/>
    <linearGradient id="linear-gradient-25" x1="973.33" y1="229.49" x2="972.11" y2="127.85" xlink:href="#linear-gradient-21"/>
    <linearGradient id="linear-gradient-26" x1="1014" y1="190.1" x2="1013.82" y2="175.31" xlink:href="#linear-gradient-21"/>
    <linearGradient id="linear-gradient-27" x1="1009.57" y1="180.42" x2="1009.05" y2="136.56" xlink:href="#linear-gradient-21"/>
    <linearGradient id="linear-gradient-28" x1="837.75" y1="184.92" x2="837.22" y2="141.06" xlink:href="#linear-gradient-21"/>
    <linearGradient id="linear-gradient-29" x1="801.32" y1="205" x2="800.27" y2="117.11" xlink:href="#linear-gradient-21"/>
    <linearGradient id="linear-gradient-30" x1="858.66" y1="130.66" x2="857.62" y2="44.33" xlink:href="#linear-gradient-21"/>
    <linearGradient id="linear-gradient-31" x1="947.78" y1="93.09" x2="947.25" y2="49.58" xlink:href="#linear-gradient-21"/>
    <linearGradient id="linear-gradient-32" x1="926.91" y1="80.1" x2="926.74" y2="65.31" xlink:href="#linear-gradient-21"/>
    <linearGradient id="linear-gradient-33" x1="892.94" y1="129.67" x2="892.06" y2="56.41" xlink:href="#linear-gradient-21"/>
    <linearGradient id="linear-gradient-34" x1="883.72" y1="145.56" x2="883.02" y2="87.43" xlink:href="#linear-gradient-21"/>
    <linearGradient id="linear-gradient-35" x1="881.29" y1="147.99" x2="880.77" y2="104.65" xlink:href="#linear-gradient-21"/>
    <linearGradient id="linear-gradient-36" x1="739.8" y1="89.83" x2="738.4" y2="-26.78" xlink:href="#linear-gradient-21"/>
    <linearGradient id="linear-gradient-37" x1="789.81" y1="60.28" x2="788.94" y2="-12.12" xlink:href="#linear-gradient-21"/>
    <linearGradient id="linear-gradient-38" x1="780.85" y1="110.16" x2="779.64" y2="8.87" xlink:href="#linear-gradient-21"/>
    <linearGradient id="linear-gradient-39" x1="794.66" y1="133.05" x2="793.45" y2="31.94" xlink:href="#linear-gradient-21"/>
    <linearGradient id="linear-gradient-40" x1="730.75" y1="147.66" x2="729.02" y2="3.38" xlink:href="#linear-gradient-21"/>
    <linearGradient id="linear-gradient-41" x1="744.08" y1="145.02" x2="743.04" y2="57.83" xlink:href="#linear-gradient-21"/>
    <linearGradient id="linear-gradient-42" x1="691.49" y1="211.82" x2="690.26" y2="109.49" xlink:href="#linear-gradient-21"/>
    <linearGradient id="linear-gradient-43" x1="611.1" y1="165.16" x2="610.26" y2="94.31" xlink:href="#linear-gradient-21"/>
    <linearGradient id="linear-gradient-44" x1="684.1" y1="146.42" x2="683.75" y2="117.01" xlink:href="#linear-gradient-21"/>
    <linearGradient id="linear-gradient-45" x1="704.81" y1="139.54" x2="704.28" y2="95.17" xlink:href="#linear-gradient-21"/>
    <linearGradient id="linear-gradient-46" x1="629.89" y1="264.99" x2="627.98" y2="105.4" xlink:href="#linear-gradient-21"/>
    <linearGradient id="linear-gradient-47" x1="693.98" y1="265.57" x2="692.42" y2="135.39" xlink:href="#linear-gradient-21"/>
    <linearGradient id="linear-gradient-48" x1="984.72" y1="124.88" x2="983.25" y2="208.15" gradientTransform="translate(1023.05) rotate(-180) scale(1 -1)" gradientUnits="userSpaceOnUse">
      <stop offset="0" stop-color="#fefdf1"/>
      <stop offset="1" stop-color="#231f20" stop-opacity="0"/>
    </linearGradient>
    <linearGradient id="linear-gradient-49" x1="1016.42" y1="137.84" x2="1015.82" y2="171.8" xlink:href="#linear-gradient-48"/>
    <linearGradient id="linear-gradient-50" x1="945.26" y1="137.45" x2="944.95" y2="154.88" xlink:href="#linear-gradient-48"/>
    <linearGradient id="linear-gradient-51" x1="933.8" y1="164.83" x2="933.49" y2="182.56" xlink:href="#linear-gradient-48"/>
    <linearGradient id="linear-gradient-52" x1="904.01" y1="160.37" x2="903.7" y2="177.79" xlink:href="#linear-gradient-48"/>
    <linearGradient id="linear-gradient-53" x1="881.1" y1="159.9" x2="880.77" y2="178.51" xlink:href="#linear-gradient-48"/>
    <linearGradient id="linear-gradient-54" x1="929.33" y1="114.84" x2="928.74" y2="148.8" xlink:href="#linear-gradient-48"/>
    <linearGradient id="linear-gradient-55" x1="881.53" y1="105.85" x2="880.33" y2="174.07" xlink:href="#linear-gradient-48"/>
    <linearGradient id="linear-gradient-56" x1="894.84" y1="96.2" x2="894.54" y2="113.63" xlink:href="#linear-gradient-48"/>
    <linearGradient id="linear-gradient-57" x1="952.25" y1="46.09" x2="951.65" y2="80.05" xlink:href="#linear-gradient-48"/>
    <linearGradient id="linear-gradient-58" x1="899.43" y1="68.7" x2="899.12" y2="86.13" xlink:href="#linear-gradient-48"/>
    <linearGradient id="linear-gradient-59" x1="883.5" y1="59.84" x2="882.9" y2="93.8" xlink:href="#linear-gradient-48"/>
    <linearGradient id="linear-gradient-60" x1="894.96" y1="50.71" x2="894.36" y2="84.67" xlink:href="#linear-gradient-48"/>
    <linearGradient id="linear-gradient-61" x1="853.75" y1="55.14" x2="853.15" y2="89.4" xlink:href="#linear-gradient-48"/>
    <linearGradient id="linear-gradient-62" x1="867.34" y1="59.53" x2="867.04" y2="76.96" xlink:href="#linear-gradient-48"/>
    <linearGradient id="linear-gradient-63" x1="828.38" y1="59.65" x2="828.08" y2="76.78" xlink:href="#linear-gradient-48"/>
    <linearGradient id="linear-gradient-64" x1="832.97" y1="64.24" x2="832.66" y2="81.36" xlink:href="#linear-gradient-48"/>
    <linearGradient id="linear-gradient-65" x1="837.55" y1="68.82" x2="837.25" y2="85.95" xlink:href="#linear-gradient-48"/>
    <linearGradient id="linear-gradient-66" x1="788.09" y1="51.32" x2="785.69" y2="187.17" xlink:href="#linear-gradient-48"/>
    <linearGradient id="linear-gradient-67" x1="794.01" y1="128.28" x2="793.7" y2="145.71" xlink:href="#linear-gradient-48"/>
    <linearGradient id="linear-gradient-68" x1="810.21" y1="123.69" x2="809.6" y2="158.54" xlink:href="#linear-gradient-48"/>
    <linearGradient id="linear-gradient-69" x1="862.92" y1="137.64" x2="862.31" y2="171.9" xlink:href="#linear-gradient-48"/>
    <linearGradient id="linear-gradient-70" x1="773.54" y1="114.79" x2="772.64" y2="166.18" xlink:href="#linear-gradient-48"/>
    <linearGradient id="linear-gradient-71" x1="764.33" y1="105.67" x2="763.74" y2="139.63" xlink:href="#linear-gradient-48"/>
    <linearGradient id="linear-gradient-72" x1="744.07" y1="82.75" x2="742.26" y2="185.82" xlink:href="#linear-gradient-48"/>
    <linearGradient id="linear-gradient-73" x1="711.82" y1="105.85" x2="710.63" y2="173.77" xlink:href="#linear-gradient-48"/>
    <linearGradient id="linear-gradient-74" x1="746.44" y1="46.48" x2="744.96" y2="130.35" xlink:href="#linear-gradient-48"/>
    <linearGradient id="linear-gradient-75" x1="785" y1="50.55" x2="784.4" y2="84.81" xlink:href="#linear-gradient-48"/>
    <linearGradient id="linear-gradient-76" x1="798.79" y1="36.99" x2="797.89" y2="88.08" xlink:href="#linear-gradient-48"/>
    <linearGradient id="linear-gradient-77" x1="814.79" y1="41.43" x2="814.19" y2="75.69" xlink:href="#linear-gradient-48"/>
    <linearGradient id="linear-gradient-78" x1="787.45" y1="18.7" x2="786.55" y2="69.79" xlink:href="#linear-gradient-48"/>
    <linearGradient id="linear-gradient-79" x1="755.24" y1="23.36" x2="754.35" y2="74.15" xlink:href="#linear-gradient-48"/>
    <linearGradient id="linear-gradient-80" x1="741.42" y1="41.19" x2="740.81" y2="75.74" xlink:href="#linear-gradient-48"/>
    <linearGradient id="linear-gradient-81" x1="711.79" y1="41.26" x2="710.88" y2="93.24" xlink:href="#linear-gradient-48"/>
    <linearGradient id="linear-gradient-82" x1="773.61" y1="9.84" x2="772.73" y2="60.05" xlink:href="#linear-gradient-48"/>
    <linearGradient id="linear-gradient-83" x1="782.67" y1=".26" x2="782.07" y2="34.22" xlink:href="#linear-gradient-48"/>
    <linearGradient id="linear-gradient-84" x1="796.3" y1=".07" x2="796" y2="17.2" xlink:href="#linear-gradient-48"/>
    <linearGradient id="linear-gradient-85" x1="748.38" y1="-13.66" x2="747.47" y2="38.02" xlink:href="#linear-gradient-48"/>
    <linearGradient id="linear-gradient-86" x1="723.08" y1=".17" x2="722.49" y2="34.14" xlink:href="#linear-gradient-48"/>
    <linearGradient id="linear-gradient-87" x1="723.48" y1=".51" x2="721.97" y2="86.15" xlink:href="#linear-gradient-48"/>
    <linearGradient id="linear-gradient-88" x1="689.18" y1="10.05" x2="687.39" y2="111.64" xlink:href="#linear-gradient-48"/>
    <linearGradient id="linear-gradient-89" x1="679.77" y1="-3.52" x2="678.59" y2="63.22" xlink:href="#linear-gradient-48"/>
    <linearGradient id="linear-gradient-90" x1="620.61" y1="-23" x2="618.18" y2="115.22" xlink:href="#linear-gradient-48"/>
    <linearGradient id="linear-gradient-91" x1="647.81" y1="101.69" x2="646.33" y2="185.85" xlink:href="#linear-gradient-48"/>
    <linearGradient id="linear-gradient-92" x1="684.45" y1="110.28" x2="683.24" y2="178.79" xlink:href="#linear-gradient-48"/>
    <linearGradient id="linear-gradient-93" x1="709.3" y1="151.35" x2="708.69" y2="185.6" xlink:href="#linear-gradient-48"/>
    <linearGradient id="linear-gradient-94" x1="704.71" y1="178.77" x2="704.11" y2="213.32" xlink:href="#linear-gradient-48"/>
    <linearGradient id="linear-gradient-95" x1="763.05" y1="133.42" x2="763.17" y2="126.79" gradientTransform="translate(-327.04)" xlink:href="#linear-gradient"/>
    <linearGradient id="linear-gradient-96" x1="761.94" y1="136.54" x2="763.18" y2="107.85" gradientTransform="translate(-327.04)" xlink:href="#linear-gradient"/>
    <linearGradient id="linear-gradient-97" x1="797.02" y1="148.09" x2="797.88" y2="128.24" gradientTransform="translate(-327.04)" xlink:href="#linear-gradient"/>
    <linearGradient id="linear-gradient-98" x1="836.21" y1="149.55" x2="836.63" y2="139.72" gradientTransform="translate(-327.04)" xlink:href="#linear-gradient"/>
    <linearGradient id="linear-gradient-99" x1="753.43" y1="164.51" x2="752.31" y2="70.22" gradientTransform="translate(-327.04)" xlink:href="#linear-gradient-21"/>
    <linearGradient id="linear-gradient-100" x1="770.76" y1="203.3" x2="769.39" y2="88.42" gradientTransform="translate(-327.04)" xlink:href="#linear-gradient-21"/>
    <linearGradient id="linear-gradient-101" x1="825.67" y1="201.99" x2="824.45" y2="100.35" gradientTransform="translate(-327.04)" xlink:href="#linear-gradient-21"/>
    <linearGradient id="linear-gradient-102" x1="866.33" y1="162.6" x2="866.16" y2="147.81" gradientTransform="translate(-327.04)" xlink:href="#linear-gradient-21"/>
    <linearGradient id="linear-gradient-103" x1="861.91" y1="152.92" x2="861.38" y2="109.06" gradientTransform="translate(-327.04)" xlink:href="#linear-gradient-21"/>
    <linearGradient id="linear-gradient-104" x1="837.06" y1="97.38" x2="835.59" y2="180.65" gradientTransform="translate(-327.04)" xlink:href="#linear-gradient-48"/>
    <linearGradient id="linear-gradient-105" x1="868.75" y1="110.34" x2="868.15" y2="144.3" gradientTransform="translate(-327.04)" xlink:href="#linear-gradient-48"/>
    <linearGradient id="linear-gradient-106" x1="797.6" y1="109.95" x2="797.29" y2="127.38" gradientTransform="translate(-327.04)" xlink:href="#linear-gradient-48"/>
    <linearGradient id="linear-gradient-107" x1="786.14" y1="137.33" x2="785.83" y2="155.06" gradientTransform="translate(-327.04)" xlink:href="#linear-gradient-48"/>
    <linearGradient id="linear-gradient-108" x1="781.67" y1="87.34" x2="781.07" y2="121.3" gradientTransform="translate(-327.04)" xlink:href="#linear-gradient-48"/>
  </defs>
  <polygon class="cls-7" points="169.58 169.58 169.58 165 165 165 165 155.83 155.83 155.83 155.83 151.25 151.25 151.25 151.25 160.42 137.5 160.42 137.5 155.83 123.75 155.83 123.75 151.25 119.17 151.25 119.17 155.83 105.42 155.83 105.42 160.42 128.33 160.42 128.33 165 155.83 165 155.83 169.58 169.58 169.58"/>
  <polyline class="cls-53" points="132.92 142.08 132.92 146.67 128.33 146.67 128.33 155.83 100.83 155.83 100.83 151.25 96.25 151.25 96.25 142.08 100.83 142.08 100.83 137.5 96.25 137.5 96.25 132.92 105.42 132.92 105.42 128.33 119.17 128.33 119.17 123.75 132.92 123.75 132.92 128.33 137.5 128.33 137.5 132.92 132.92 132.92"/>
  <polyline class="cls-59" points="96.25 169.58 96.25 165 91.67 165 91.67 160.42 87.08 160.42 87.08 155.83 73.33 155.83 73.33 151.25 64.17 151.25 64.17 160.42 59.58 160.42 59.58 165 73.33 165 73.33 169.58"/>
  <polyline class="cls-103" points="45.83 174.17 45.83 169.58 41.25 169.58 41.25 165 32.08 165 32.08 174.17"/>
  <polyline class="cls-26" points="169.58 155.83 192.5 155.83 192.5 151.25 178.75 151.25 178.75 146.67 169.58 146.67"/>
  <polyline class="cls-14" points="155.83 146.67 183.33 146.67 183.33 155.83 201.67 155.83 201.67 151.25 210.83 151.25 210.83 146.67 206.25 146.67 206.25 137.5 206.25 132.92 192.5 132.92 192.5 128.33 183.33 128.33 183.33 132.92 178.75 132.92 178.75 137.5 174.17 137.5 169.58 137.5 169.58 142.08 160.42 142.08 160.42 137.5 151.25 137.5 151.25 151.25 155.83 151.25"/>
  <polyline class="cls-57" points="224.58 91.67 224.58 82.5 215.42 82.5 215.42 77.92 206.25 77.92 206.25 73.33 201.67 73.33 201.67 68.75 192.5 68.75 192.5 73.33 187.92 73.33 187.92 82.5 169.58 82.5 169.58 77.92 160.42 77.92 160.42 68.75 151.25 68.75 151.25 73.33 146.67 73.33 146.67 77.92 142.08 77.92 142.08 87.08 146.67 87.08 146.67 91.67 151.25 91.67 151.25 96.25 155.83 96.25 155.83 100.83 155.83 105.42 151.25 105.42 151.25 114.58 146.67 114.58 146.67 123.75 142.08 123.75 142.08 128.33 146.67 128.33 146.67 132.92 151.25 132.92 151.25 146.67 165 146.67 165 151.25 215.42 151.25 215.42 142.08 206.25 142.08 206.25 132.92 220 132.92 220 114.58 210.83 114.58 210.83 110 215.42 110 215.42 105.42 220 105.42 220 100.83 220 91.67"/>
  <polyline class="cls-76" points="146.67 82.5 137.5 82.5 137.5 87.08 132.92 87.08 132.92 91.67 123.75 91.67 123.75 100.83 132.92 100.83 132.92 105.42 165 105.42 165 96.25 160.42 96.25 160.42 91.67 155.83 91.67 155.83 87.08 146.67 87.08"/>
  <polyline class="cls-63" points="284.17 137.5 256.67 137.5 256.67 128.33 252.08 128.33 252.08 123.75 261.25 123.75 261.25 114.58 270.42 114.58 270.42 119.17 288.75 119.17 288.75 128.33 284.17 128.33"/>
  <polygon class="cls-96" points="279.58 151.25 279.58 146.67 270.42 146.67 265.83 146.67 265.83 142.08 270.42 142.08 270.42 132.92 256.67 132.92 256.67 142.08 252.08 142.08 252.08 146.67 247.5 146.67 247.5 151.25 229.17 151.25 229.17 146.67 224.58 146.67 224.58 155.83 256.67 155.83 256.67 151.25 279.58 151.25"/>
  <polygon class="cls-20" points="275 146.67 275 142.08 270.42 142.08 270.42 137.5 293.33 137.5 293.33 132.92 307.08 132.92 307.08 137.5 311.67 137.5 311.67 146.67 307.08 146.67 307.08 151.25 288.75 151.25 288.75 146.67 275 146.67"/>
  <polygon class="cls-2" points="380.42 201.67 362.08 201.67 362.08 206.25 339.17 206.25 339.17 197.08 325.42 197.08 325.42 192.5 330 192.5 330 187.92 325.42 187.92 325.42 183.33 311.67 183.33 311.67 178.75 311.67 174.17 320.83 174.17 320.83 165 330 165 330 169.58 334.58 169.58 334.58 160.42 339.17 160.42 339.17 155.83 352.92 155.83 352.92 160.42 366.67 160.42 366.67 155.83 362.08 155.83 362.08 151.25 375.83 151.25 375.83 146.67 385 146.67 385 142.08 398.75 142.08 398.75 151.25 403.33 151.25 403.33 155.83 398.75 155.83 398.75 160.42 398.75 165 407.92 165 407.92 169.58 398.75 169.58 398.75 178.75 394.17 178.75 394.17 183.33 375.83 183.33 375.83 187.92 385 187.92 385 192.5 394.17 192.5 394.17 197.08 380.42 197.08 380.42 201.67"/>
  <polyline class="cls-38" points="297.92 114.58 284.17 114.58 284.17 110 275 110 275 105.42 279.58 105.42 279.58 100.83 284.17 100.83 284.17 91.67 288.75 91.67 288.75 96.25 293.33 96.25 293.33 91.67 302.5 91.67 302.5 100.83 307.08 100.83 307.08 110 297.92 110"/>
  <polyline class="cls-52" points="311.67 96.25 307.08 96.25 307.08 87.08 311.67 87.08 311.67 77.92 307.08 77.92 307.08 73.33 302.5 73.33 302.5 68.75 316.25 68.75 316.25 77.92 325.42 77.92 325.42 87.08 320.83 87.08 320.83 96.25"/>
  <polygon class="cls-19" points="284.17 45.83 279.58 45.83 279.58 50.42 270.42 50.42 270.42 45.83 275 45.83 275 36.67 293.33 36.67 293.33 41.25 297.92 41.25 297.92 45.83 284.17 45.83"/>
  <polyline class="cls-42" points="288.75 32.08 279.58 32.08 279.58 36.67 270.42 36.67 270.42 32.08 265.83 32.08 265.83 22.92 270.42 22.92 270.42 18.33 270.42 13.75 279.58 13.75 279.58 18.33 288.75 18.33 288.75 27.5 293.33 27.5 293.33 32.08"/>
  <polyline class="cls-3" points="265.83 110 261.25 110 261.25 114.58 247.5 114.58 247.5 110 238.33 110 238.33 100.83 247.5 100.83 247.5 91.67 252.08 91.67 252.08 87.08 265.83 87.08 265.83 96.25 275 96.25 275 110"/>
  <polyline class="cls-81" points="453.75 96.25 453.75 82.5 449.17 82.5 449.17 64.17 417.08 64.17 417.08 55 412.5 55 412.5 36.67 407.92 36.67 407.92 32.08 403.33 32.08 403.33 22.92 394.17 22.92 394.17 36.67 385 36.67 385 32.08 380.42 32.08 380.42 27.5 375.83 27.5 375.83 18.33 357.5 18.33 357.5 22.92 348.33 22.92 348.33 27.5 339.17 27.5 339.17 32.08 330 32.08 330 41.25 334.58 41.25 334.58 45.83 339.17 45.83 339.17 50.42 343.75 50.42 343.75 55 339.17 55 339.17 64.17 334.58 64.17 334.58 77.92 330 77.92 330 87.08 316.25 87.08 316.25 91.67 330 91.67 330 105.42 339.17 105.42 339.17 110 348.33 110 348.33 119.17 366.67 119.17 366.67 123.75 389.58 123.75 389.58 128.33 417.08 128.33 417.08 119.17 453.75 119.17"/>
  <polyline class="cls-5" points="453.75 123.75 476.67 123.75 476.67 110 481.25 110 481.25 105.42 472.08 105.42 472.2 96.25 453.75 96.25"/>
  <polyline class="cls-51" points="394.17 105.42 394.17 96.25 389.58 96.25 389.58 87.08 371.25 87.08 371.25 82.5 362.08 82.5 362.08 91.67 343.75 91.67 343.75 96.25 339.17 96.25 339.17 100.83 343.75 100.83 343.75 105.42"/>
  <polyline class="cls-13" points="242.92 119.17 233.75 119.17 233.75 123.75 229.17 123.75 229.17 119.17 224.58 119.17 224.58 114.58 220 114.58 220 110 210.83 110 210.83 119.17 206.25 119.17 206.25 123.75 206.25 128.33 201.67 128.33 201.67 132.92 215.42 132.92 215.42 137.5 224.58 137.5 224.58 132.92 233.75 132.92 233.75 137.5 229.17 137.5 229.17 142.08 242.92 142.08 242.92 146.67 252.08 146.67 252.08 142.08 252.08 137.5 247.5 137.5 247.5 128.33 252.08 128.33 252.08 123.75 247.5 123.75 247.5 119.17"/>
  <polyline class="cls-43" points="183.33 137.5 174.17 137.5 174.17 142.08 169.58 142.08 169.58 132.92 174.17 132.92 174.17 123.75 178.75 123.75 178.75 119.17 183.33 119.17 183.33 123.75 197.08 123.75 197.08 128.33 187.92 128.33 187.92 132.92 183.33 132.92"/>
  <polyline class="cls-39" points="155.83 137.5 155.83 132.92 151.25 132.92 151.25 128.33 146.67 128.33 146.67 132.92 142.08 132.92 142.08 137.5 146.67 137.5 146.67 142.08 142.08 142.08 137.5 142.08 137.5 137.5 132.92 137.5 132.92 132.92 137.5 132.92 137.5 123.75 132.92 123.75 132.92 119.17 123.75 119.17 123.75 123.75 114.58 123.75 114.58 119.17 105.42 119.17 105.42 123.75 96.25 123.75 96.25 132.92 91.67 132.92 91.67 142.08 96.25 142.08 96.25 137.5 100.83 137.5 100.83 132.92 105.42 132.92 110 132.92 110 128.33 119.17 128.33 119.17 132.92 123.75 132.92 123.75 128.33 128.33 128.33 128.33 137.5 128.33 142.08 128.33 146.67 123.75 146.67 123.75 151.25 119.17 151.25 119.17 155.83 128.33 155.83 128.33 160.42 146.67 160.42 146.67 155.83 151.25 155.83 155.83 155.83 155.83 151.25 151.25 151.25 151.25 146.67 151.25 142.08 155.83 142.08"/>
  <polygon class="cls-78" points="132.92 174.17 132.92 169.58 128.33 169.58 114.58 169.58 114.58 165 128.33 165 128.33 160.42 110 160.42 110 155.83 105.42 155.83 105.42 151.25 96.25 151.25 96.25 146.67 91.67 146.67 91.67 142.08 82.5 142.08 82.5 146.67 73.33 146.67 73.33 151.25 68.75 151.25 68.75 155.83 77.92 155.83 77.92 160.42 87.08 160.42 87.08 165 96.25 165 96.25 169.58 96.25 174.17 110 174.17 110 178.75 142.08 178.75 142.08 174.17 132.92 174.17"/>
  <polygon class="cls-40" points="82.5 174.17 82.5 169.58 77.92 169.58 73.33 169.58 73.33 165 68.75 165 68.75 160.42 64.17 160.42 64.17 155.83 59.58 155.83 59.58 151.25 45.83 151.25 45.83 155.83 36.67 155.83 36.67 160.42 32.08 160.42 32.08 165 22.92 165 22.92 169.58 18.33 169.58 18.33 174.17 36.67 174.17 36.67 178.75 45.83 178.75 45.83 183.33 59.58 183.33 59.58 178.75 73.33 178.75 73.33 174.17 82.5 174.17"/>
  <polyline class="cls-79" points="13.75 183.33 13.75 178.75 9.17 178.75 4.58 178.75 4.58 183.33"/>
  <polyline class="cls-64" points="22.92 160.42 22.92 155.83 18.33 155.83 18.33 146.67 13.75 146.67 13.75 151.25 9.17 151.25 9.17 155.83 4.58 155.83 4.58 160.42"/>
  <polyline class="cls-93" points="197.08 160.42 197.08 151.25 187.92 151.25 187.92 155.83 174.17 155.83 174.17 160.42 183.33 160.42 183.33 165 187.92 165 187.92 160.42"/>
  <polyline class="cls-89" points="242.92 137.5 224.58 137.5 224.58 142.08 215.42 142.08 210.83 142.08 210.83 151.25 206.25 151.25 206.25 155.83 201.67 155.83 201.67 160.42 210.83 160.42 210.83 165 215.42 165 215.42 160.42 233.75 160.42 242.92 160.42"/>
  <polyline class="cls-83" points="192.5 87.08 192.5 82.5 187.92 82.5 187.92 77.92 183.33 77.92 183.33 73.33 178.75 73.33 178.75 77.92 174.17 77.92 174.17 68.75 169.58 68.75 169.58 64.17 160.42 64.17 160.42 68.75 151.25 68.75 151.25 64.17 146.67 64.17 146.67 68.75 142.08 68.75 142.08 73.33 137.5 73.33 137.5 77.92 151.25 77.92 151.25 73.33 155.83 73.33 160.42 73.33 160.42 77.92 169.58 77.92 169.58 87.08 178.75 87.08 178.75 91.67 183.33 91.67 183.33 87.08"/>
  <polyline class="cls-27" points="82.5 68.75 82.5 64.17 77.92 64.17 77.92 59.58 68.75 59.58 68.75 68.75 73.33 68.75 73.33 73.33 77.92 73.33 77.92 68.75"/>
  <rect class="cls-48" x="91.67" y="68.75" width="9.17" height="4.58"/>
  <polyline class="cls-6" points="146.67 82.5 146.67 77.92 142.08 77.92 142.08 73.33 128.33 73.33 128.33 77.92 119.17 77.92 119.17 82.5 123.75 82.5 123.75 87.08 119.17 87.08 119.17 91.67 114.58 91.67 114.58 96.25 128.33 96.25 128.33 91.67 137.5 91.67 137.5 82.5"/>
  <polyline class="cls-32" points="155.83 110 155.83 105.42 146.67 105.42 146.67 100.83 142.08 100.83 142.08 105.42 137.5 105.42 137.5 100.83 123.75 100.83 123.75 105.42 128.33 105.42 128.33 114.58 132.92 114.58 137.5 114.58 137.5 119.17 151.25 119.17 151.25 114.58 155.83 114.58"/>
  <polyline class="cls-46" points="151.25 123.75 151.25 119.17 142.08 119.17 142.08 114.58 132.92 114.58 132.92 119.17 132.92 123.75 142.08 123.75 142.08 128.33 151.25 128.33"/>
  <polyline class="cls-73" points="293.33 32.08 297.92 32.08 297.92 22.92 302.5 22.92 302.5 18.33 307.08 18.33 307.08 13.75 297.92 13.75 297.92 18.33 293.33 18.33 293.33 9.17 297.92 9.17 297.92 4.58 288.75 4.58 288.75 0 279.58 0 279.58 4.58 284.17 4.58 284.17 13.75 279.58 13.75 279.58 9.17 275 9.17 275 4.58 270.42 4.58 265.83 4.58 265.83 9.17 261.25 9.17 261.25 18.33 265.83 18.33 265.83 22.92 261.25 22.92 261.25 32.08 261.25 36.67 265.83 36.67 270.42 36.67 270.42 32.08 265.83 32.08 265.83 27.5 270.42 27.5 270.42 18.33 275 18.33 275 22.92 288.75 22.92 288.75 27.5 293.33 27.5"/>
  <polyline class="cls-104" points="242.92 27.5 242.92 18.33 238.33 18.33 238.33 9.17 242.92 9.17 242.92 4.58 229.17 4.58 229.17 9.17 224.58 9.17 224.58 18.33 229.17 18.33 229.17 22.92 238.33 22.92 238.33 27.5"/>
  <polyline class="cls-1" points="247.5 41.25 247.5 36.67 242.92 36.67 242.92 32.08 238.33 32.08 238.33 41.25 242.92 41.25 242.92 45.83 238.33 45.83 229.17 45.83 229.17 50.42 229.17 55 233.75 55 233.75 59.58 238.33 59.58 238.33 64.17 247.5 64.17 247.5 59.58 252.08 59.58 252.08 55 256.67 55 256.67 50.42 252.08 50.42 252.08 41.25"/>
  <polyline class="cls-58" points="233.75 64.17 224.58 64.17 224.58 59.58 220 59.58 220 55 215.42 55 215.42 59.58 201.67 59.58 201.67 64.17 210.83 64.17 210.83 68.75 197.08 68.75 197.08 73.33 210.83 73.33 210.83 82.5 220 82.5 220 87.08 233.75 87.08 233.75 82.5 247.5 82.5 247.5 77.92 256.67 77.92 256.67 68.75 261.25 68.75 261.25 64.17 252.08 64.17 242.92 64.17 242.92 68.75 233.75 68.75"/>
  <polyline class="cls-36" points="343.75 59.58 334.58 59.58 334.58 64.17 325.42 64.17 320.83 64.17 320.83 55 320.83 41.25 311.67 41.25 311.67 36.67 302.5 36.67 293.33 36.67 293.33 45.83 284.17 45.83 284.17 41.25 279.58 41.25 279.58 55 270.42 55 270.42 50.42 261.25 50.42 261.25 55 242.92 55 242.92 68.75 265.83 68.75 265.83 59.58 270.42 59.58 270.42 68.75 279.58 68.75 279.58 73.33 288.75 73.33 288.75 68.75 297.92 68.75 297.92 77.92 316.25 77.92 316.25 82.5 339.17 82.5 339.17 68.75 343.75 68.75"/>
  <polyline class="cls-34" points="311.67 82.5 293.33 82.5 293.33 87.08 288.75 87.08 288.75 77.92 275 77.92 275 82.5 270.42 82.5 270.42 77.92 261.25 77.92 261.25 82.5 252.08 82.5 252.08 87.08 247.5 87.08 247.5 91.67 238.33 91.67 238.33 100.83 252.08 100.83 252.08 91.67 265.83 91.67 265.83 96.25 275 96.25 275 105.42 279.58 105.42 279.58 100.83 284.17 100.83 284.17 91.67 288.75 91.67 288.75 96.25 320.83 96.25 320.83 91.67 316.25 91.67 316.25 87.08 311.67 87.08"/>
  <polyline class="cls-16" points="403.33 151.25 398.75 151.25 398.75 142.08 389.58 142.08 389.58 146.67 375.83 146.67 375.83 151.25 371.25 151.25 371.25 155.83 366.67 155.83 366.67 160.42 357.5 160.42 357.5 165 343.75 165 343.75 160.42 334.58 160.42 334.58 165 320.83 165 320.83 160.42 307.08 160.42 307.08 165 297.92 165 297.92 160.42 284.17 160.42 284.17 155.83 261.25 155.83 261.25 151.25 275 151.25 275 146.67 297.92 146.67 297.92 151.25 307.08 151.25 307.08 142.08 311.67 142.08 311.67 132.92 330 132.92 330 142.08 334.58 142.08 334.58 146.67 348.33 146.67 348.33 137.5 362.08 137.5 362.08 146.67 371.25 146.67 371.25 137.5 403.33 137.5"/>
  <polygon class="cls-41" points="481.25 123.75 481.25 128.33 467.5 128.33 467.5 132.92 453.75 132.92 453.75 128.33 444.58 128.33 444.58 132.92 403.33 132.92 403.33 128.33 389.58 128.33 389.58 123.75 371.25 123.75 371.25 128.33 352.92 128.33 352.92 114.58 343.75 114.58 343.75 110 366.67 110 366.67 119.17 394.17 119.17 394.17 123.75 417.08 123.75 417.08 119.17 453.75 119.17 453.75 123.75 481.25 123.75"/>
  <polyline class="cls-84" points="352.92 132.92 352.92 128.33 339.17 128.33 339.17 123.75 325.42 123.75 325.42 132.92"/>
  <polyline class="cls-55" points="320.83 119.17 320.83 114.58 316.25 114.58 316.25 119.17 297.92 119.17 297.92 110 307.08 110 307.08 105.42 320.83 105.42 325.42 105.42 325.42 110 339.17 110 339.17 119.17"/>
  <polyline class="cls-90" points="394.17 142.08 403.33 142.08 403.33 146.67 407.92 146.67 407.92 160.42 412.5 160.42 412.5 169.58 407.92 169.58 407.92 174.17 412.5 174.17 412.5 178.75 403.33 178.75 403.33 183.33 398.75 183.33 398.75 187.92 389.58 187.92 389.58 192.5 385 192.5 385 187.92 375.83 187.92 375.83 183.33 389.58 183.33 389.58 178.75 394.17 178.75 394.17 174.17 398.75 174.17 398.75 165 394.17 165 394.17 155.83 398.75 155.83 398.75 146.67 394.17 146.67"/>
  <polyline class="cls-77" points="362.08 201.67 348.33 201.67 348.33 197.08 325.42 197.08 325.42 192.5 330 192.5 330 187.92 330 183.33 311.67 183.33 311.67 178.75 316.25 178.75 316.25 169.58 311.67 169.58 311.67 165 302.5 165 302.5 169.58 297.92 169.58 297.92 174.17 302.5 174.17 302.5 178.75 307.08 178.75 307.08 187.92 316.25 187.92 316.25 192.5 311.67 192.5 311.67 197.08 307.08 197.08 307.08 206.25 330 206.25 330 201.67 343.75 201.67 343.75 206.25 362.08 206.25"/>
  <polyline class="cls-74" points="64.17 155.83 59.58 155.83 59.58 151.25 50.42 151.25 50.42 155.83 41.25 155.83 41.25 160.42 36.67 160.42 32.08 160.42 32.08 165 22.92 165 22.92 169.58 9.17 169.58 9.17 165 18.33 165 18.33 160.42 27.5 160.42 27.5 155.83 36.67 155.83 36.67 146.67 55 146.67 64.17 146.67 64.17 151.25 68.75 151.25 68.75 155.83"/>
  <polyline class="cls-75" points="13.75 155.83 0 155.83 0 151.25 9.17 151.25 9.17 146.67 13.75 146.67 13.75 151.25"/>
  <polyline class="cls-47" points="82.5 142.08 73.33 142.08 73.33 146.67 82.5 146.67"/>
  <polyline class="cls-82" points="96.25 169.58 82.5 169.58 82.5 174.17 96.25 174.17"/>
  <polyline class="cls-54" points="114.58 165 114.58 169.58 123.75 169.58 123.75 165"/>
  <polyline class="cls-69" points="128.33 165 128.33 169.58 155.83 169.58 155.83 165"/>
  <polyline class="cls-44" points="96.25 123.75 91.67 123.75 91.67 132.92 96.25 132.92"/>
  <polyline class="cls-45" points="142.08 123.75 137.5 123.75 137.5 132.92 132.92 132.92 132.92 137.5 137.5 137.5 137.5 142.08 151.25 142.08 151.25 137.5 142.08 137.5 142.08 132.92 146.67 132.92 146.67 128.33 142.08 128.33"/>
  <rect class="cls-94" x="123.75" y="100.83" width="9.17" height="4.58"/>
  <polyline class="cls-12" points="73.33 64.17 73.33 55 68.75 55 68.75 64.17"/>
  <polyline class="cls-30" points="128.33 73.33 119.17 73.33 119.17 77.92 128.33 77.92"/>
  <polyline class="cls-50" points="132.92 77.92 132.92 73.33 137.5 73.33 137.5 68.75 146.67 68.75 146.67 73.33 142.08 73.33 142.08 77.92"/>
  <polyline class="cls-49" points="132.92 59.58 132.92 68.75 123.75 68.75 123.75 64.17 128.33 64.17 128.33 59.58"/>
  <polyline class="cls-80" points="174.17 73.33 165 73.33 165 64.17 169.58 64.17 169.58 68.75 174.17 68.75"/>
  <polyline class="cls-8" points="160.42 64.17 160.42 68.75 151.25 68.75 151.25 64.17"/>
  <polyline class="cls-31" points="197.08 68.75 197.08 64.17 192.5 64.17 192.5 68.75"/>
  <polyline class="cls-91" points="192.5 73.33 192.5 68.75 187.92 68.75 187.92 73.33"/>
  <polyline class="cls-72" points="187.92 77.92 187.92 73.33 183.33 73.33 183.33 77.92"/>
  <polyline class="cls-37" points="247.5 110 242.92 110 242.92 105.42 238.33 105.42 238.33 96.25 233.75 96.25 233.75 87.08 220 87.08 220 100.83 215.42 100.83 215.42 110 220 110 220 114.58 224.58 114.58 224.58 119.17 229.17 119.17 229.17 123.75 238.33 123.75 238.33 119.17 256.67 119.17 256.67 114.58 247.5 114.58"/>
  <polyline class="cls-11" points="233.75 132.92 233.75 137.5 224.58 137.5 224.58 132.92"/>
  <polyline class="cls-87" points="224.58 142.08 224.58 137.5 215.42 137.5 215.42 132.92 206.25 132.92 206.25 137.5 201.67 137.5 201.67 142.08"/>
  <polyline class="cls-61" points="165 155.83 165 151.25 160.42 151.25 160.42 146.67 155.83 146.67 155.83 155.83"/>
  <polyline class="cls-98" points="256.67 142.08 256.67 128.33 242.92 128.33 242.92 132.92 247.5 132.92 247.5 137.5 252.08 137.5 252.08 142.08"/>
  <polyline class="cls-29" points="261.25 123.75 261.25 114.58 256.67 114.58 256.67 123.75"/>
  <polyline class="cls-88" points="284.17 110 261.25 110 261.25 114.58 265.83 114.58 265.83 119.17 279.58 119.17 279.58 123.75 284.17 123.75 284.17 137.5 293.33 137.5 293.33 132.92 297.92 132.92 297.92 119.17 293.33 119.17 293.33 114.58 284.17 114.58"/>
  <polyline class="cls-24" points="325.42 128.33 320.83 128.33 320.83 123.75 302.5 123.75 302.5 128.33 297.92 128.33 297.92 132.92 307.08 132.92 307.08 142.08 311.67 142.08 311.67 137.5 320.83 137.5 320.83 132.92 325.42 132.92"/>
  <polyline class="cls-101" points="316.25 77.92 302.5 77.92 302.5 73.33 297.92 73.33 297.92 68.75 288.75 68.75 288.75 73.33 279.58 73.33 279.58 68.75 270.42 68.75 270.42 73.33 261.25 73.33 261.25 68.75 256.67 68.75 256.67 77.92 247.5 77.92 247.5 82.5 238.33 82.5 238.33 91.67 252.08 91.67 252.08 87.08 256.67 87.08 256.67 82.5 265.83 82.5 265.83 77.92 270.42 77.92 270.42 82.5 275 82.5 275 77.92 288.75 77.92 288.75 82.5 284.17 82.5 284.17 87.08 297.92 87.08 297.92 82.5 316.25 82.5"/>
  <polyline class="cls-108" points="242.92 64.17 238.33 64.17 238.33 59.58 233.75 59.58 233.75 68.75 242.92 68.75"/>
  <polyline class="cls-15" points="229.17 64.17 224.58 64.17 224.58 59.58 220 59.58 220 55 220 50.42 229.17 50.42 229.17 55"/>
  <polyline class="cls-60" points="215.42 55 210.83 55 210.83 50.42 206.25 50.42 206.25 55 201.67 55 201.67 59.58 215.42 59.58"/>
  <polyline class="cls-99" points="242.92 41.25 238.33 41.25 238.33 32.08 233.75 32.08 233.75 41.25 229.17 41.25 229.17 45.83 242.92 45.83"/>
  <polyline class="cls-106" points="275 36.67 265.83 36.67 265.83 41.25 261.25 41.25 261.25 45.83 265.83 45.83 265.83 50.42 270.42 50.42 270.42 45.83 275 45.83"/>
  <polyline class="cls-105" points="270.42 55 270.42 50.42 293.33 50.42 293.33 55 284.17 55 284.17 59.58 270.42 59.58"/>
  <polyline class="cls-23" points="316.25 59.58 316.25 55 302.5 55 302.5 59.58 297.92 59.58 297.92 64.17 311.67 64.17 311.67 68.75 325.42 68.75 325.42 64.17 320.83 64.17 316.25 64.17"/>
  <polyline class="cls-66" points="242.92 36.67 247.5 36.67 247.5 32.08 256.67 32.08 256.67 22.92 252.08 22.92 252.08 27.5 242.92 27.5"/>
  <polyline class="cls-68" points="242.92 18.33 242.92 9.17 238.33 9.17 238.33 18.33"/>
  <polyline class="cls-85" points="229.17 4.58 224.58 4.58 224.58 9.17 229.17 9.17"/>
  <polyline class="cls-71" points="284.17 13.75 284.17 4.58 279.58 4.58 279.58 0 265.83 0 265.83 4.58 275 4.58 275 9.17 279.58 9.17 279.58 13.75"/>
  <polyline class="cls-100" points="293.33 18.33 293.33 9.17 307.08 9.17 307.08 13.75 297.92 13.75 297.92 18.33"/>
  <polyline class="cls-97" points="320.83 41.25 320.83 36.67 316.25 36.67 316.25 32.08 302.5 32.08 302.5 22.92 297.92 22.92 297.92 32.08 293.33 32.08 293.33 27.5 288.75 27.5 288.75 32.08 279.58 32.08 279.58 36.67 293.33 36.67 293.33 41.25 316.25 41.25 316.25 45.83 320.83 45.83"/>
  <polyline class="cls-4" points="339.17 64.17 330 64.17 330 59.58 334.58 59.58 334.58 50.42 325.42 50.42 325.42 45.83 330 45.83 330 36.67 334.58 36.67 334.58 45.83 339.17 45.83 339.17 50.42 343.75 50.42 343.75 59.58 339.17 59.58"/>
  <polyline class="cls-35" points="325.42 32.08 343.75 32.08 343.75 27.5 348.33 27.5 348.33 22.92 357.5 22.92 357.5 18.33 362.08 18.33 362.08 13.75 352.92 13.75 352.92 18.33 348.33 18.33 343.75 18.33 343.75 22.92 334.58 22.92 334.58 27.5 325.42 27.5"/>
  <polyline class="cls-70" points="366.67 18.33 366.67 13.75 380.42 13.75 380.42 22.92 385 22.92 385 18.33 389.58 18.33 389.58 13.75 398.75 13.75 398.75 18.33 403.33 18.33 403.33 13.75 412.5 13.75 412.5 22.92 417.08 22.92 430.83 22.92 430.83 27.5 444.58 27.5 444.58 32.08 435.42 32.08 435.42 36.67 430.83 36.67 430.83 45.83 421.67 45.83 421.67 50.42 412.5 50.42 412.5 36.67 403.33 36.67 403.33 32.08 398.75 32.08 398.75 27.5 394.17 27.5 394.17 36.67 375.83 36.67 375.83 32.08 371.25 32.08 371.25 27.5 366.67 27.5 362.08 27.5 362.08 22.92 366.67 22.92"/>
  <polyline class="cls-25" points="403.33 137.5 403.33 132.92 398.75 132.92 398.75 128.33 389.58 128.33 389.58 123.75 371.25 123.75 371.25 128.33 362.08 128.33 362.08 132.92 348.33 132.92 348.33 137.5 362.08 137.5 362.08 146.67 371.25 146.67 371.25 137.5"/>
  <polyline class="cls-9" points="348.33 146.67 348.33 142.08 343.75 142.08 343.75 132.92 334.58 132.92 334.58 128.33 330 128.33 330 142.08 334.58 142.08 334.58 146.67"/>
  <polyline class="cls-56" points="320.83 160.42 307.08 160.42 307.08 165 311.67 165 311.67 169.58 316.25 169.58 316.25 165 320.83 165"/>
  <path class="cls-62" d="M325.42,187.92c-4.58,0-13.75,0-13.75,0v4.58s9.17,0,9.17,0v4.58s4.58,0,4.58,0"/>
  <polyline class="cls-18" points="429.18 128.33 442.93 128.33 442.93 132.92 429.18 132.92"/>
  <polyline class="cls-33" points="420.01 128.33 447.51 128.33 447.51 123.75 452.1 123.75 452.1 114.58 447.51 114.58 447.51 110 452.1 110 452.1 105.42 442.93 105.42 442.93 100.83 419.77 101.11"/>
  <polyline class="cls-86" points="452.1 142.08 452.1 137.5 456.68 137.5 456.68 132.92 461.26 132.92 461.26 128.33 475.01 128.33 475.01 123.75 484.18 123.75 484.18 132.92 488.76 132.92 488.76 137.5 475.01 137.5 475.01 142.08"/>
  <polyline class="cls-10" points="502.51 146.67 502.51 142.08 507.1 142.08 507.1 137.5 516.26 137.5 516.26 146.67"/>
  <polyline class="cls-95" points="442.93 91.67 442.93 96.25 452.1 96.25 452.1 105.42 456.68 105.42 456.68 114.58 452.1 114.58 452.1 110 447.51 110 447.51 105.42 442.93 105.42 438.35 105.42 438.35 100.83 429.18 100.83 429.18 111.18 406.26 111.48 406.26 121.98 394.88 121.98 394.88 103.65 423.92 103.65 424.22 96.77 439.03 96.77 439.33 91.67"/>
  <polyline class="cls-65" points="406.26 151.25 438.35 151.25 438.35 146.67 452.1 146.67 452.1 142.08 452.1 137.5 461.26 137.5 461.26 132.92 470.43 132.92 470.43 128.33 479.6 128.33 479.6 123.75 475.01 123.75 475.01 119.17 465.85 119.17 465.85 114.58 456.68 114.58 456.68 119.17 452.1 119.17 452.1 123.75 442.93 123.75 442.93 128.33 438.35 128.33 438.35 132.92 420.01 132.92 420.01 142.08 406.26 142.08"/>
  <polygon class="cls-22" points="465.85 146.67 465.85 142.08 470.43 142.08 475.01 142.08 475.01 137.5 479.6 137.5 479.6 132.92 484.18 132.92 484.18 128.33 488.76 128.33 488.76 123.75 502.51 123.75 502.51 128.33 511.68 128.33 511.68 132.92 516.26 132.92 516.26 137.5 525.43 137.5 525.43 142.08 530.01 142.08 530.01 146.67 511.68 146.67 511.68 151.25 502.51 151.25 502.51 155.83 488.76 155.83 488.76 151.25 475.01 151.25 475.01 146.67 465.85 146.67"/>
  <polyline class="cls-102" points="534.6 155.83 534.6 151.25 539.18 151.25 543.76 151.25 543.76 155.83"/>
  <polyline class="cls-28" points="525.43 132.92 525.43 128.33 530.01 128.33 530.01 119.17 534.6 119.17 534.6 123.75 539.18 123.75 539.18 128.33 543.76 128.33 543.76 132.92"/>
  <polyline class="cls-17" points="484.18 128.33 488.76 128.33 488.76 123.75 497.93 123.75 497.93 128.33 507.1 128.33 507.1 132.92 511.68 132.92 516.26 132.92 516.26 137.5 525.43 137.5 525.43 142.08 539.18 142.08 539.18 137.5 530.01 137.5 530.01 132.92 520.85 132.92 520.85 128.33 511.68 128.33 511.68 119.17 493.35 119.17 484.18 119.17 484.18 123.75 479.6 123.75 479.6 128.33"/>
  <polyline class="cls-67" points="534.6 128.33 548.35 128.33 548.35 123.75 539.18 123.75 539.18 119.17 534.6 119.17 534.6 123.75"/>
  <polyline class="cls-21" points="465.85 114.58 475.01 114.58 475.01 119.17 465.85 119.17"/>
  <polyline class="cls-92" points="452.1 142.08 465.85 142.08 465.85 146.67 452.1 146.67"/>
  <polyline class="cls-107" points="452.1 96.25 456.68 96.25 456.68 105.42 452.1 105.42"/>
</svg>