<?xml version="1.0" encoding="UTF-8"?>
<svg id="Layer_1" data-name="Layer 1" xmlns="http://www.w3.org/2000/svg" xmlns:xlink="http://www.w3.org/1999/xlink" viewBox="0 0 64.21 30.77">
  <defs>
    <style>
      .cls-1 {
        fill: url(#linear-gradient);
      }

      .cls-1, .cls-2, .cls-3 {
        stroke-width: 0px;
      }

      .cls-2 {
        fill: url(#linear-gradient-2);
      }

      .cls-3 {
        fill: url(#linear-gradient-3);
      }
    </style>
    <linearGradient id="linear-gradient" x1="-136.53" y1="30.56" x2="-135.67" y2="10.71" gradientTransform="translate(-103.97) rotate(-180) scale(1 -1)" gradientUnits="userSpaceOnUse">
      <stop offset="0" stop-color="#445456" stop-opacity=".7"/>
      <stop offset="1" stop-color="#231f20" stop-opacity="0"/>
    </linearGradient>
    <linearGradient id="linear-gradient-2" x1="-135.39" y1="75.04" x2="-136.56" y2="-22.51" gradientTransform="translate(-103.97) rotate(-180) scale(1 -1)" gradientUnits="userSpaceOnUse">
      <stop offset="0" stop-color="#b1b3a5"/>
      <stop offset="1" stop-color="#231f20" stop-opacity="0"/>
    </linearGradient>
    <linearGradient id="linear-gradient-3" x1="-135.45" y1="-17.86" x2="-136.91" y2="65.41" gradientTransform="translate(-103.97) rotate(-180) scale(1 -1)" gradientUnits="userSpaceOnUse">
      <stop offset="0" stop-color="#fefdf1"/>
      <stop offset="1" stop-color="#231f20" stop-opacity="0"/>
    </linearGradient>
  </defs>
  <polyline class="cls-1" points="50.44 24.55 50.44 19.97 45.85 19.97 45.85 15.39 41.27 15.39 41.27 10.8 27.52 10.8 27.52 6.22 18.35 6.22 18.35 15.39 13.77 15.39 13.77 19.97 27.52 19.97 27.52 24.55"/>
  <polyline class="cls-2" points="64.21 17.58 59.95 17.58 59.95 13.19 54.96 13.19 54.96 8.79 49.96 8.79 49.96 4.4 44.97 4.4 44.97 0 29.98 0 29.98 4.4 19.98 4.4 19.98 8.79 14.99 8.79 14.99 13.19 5 13.19 5 17.58 0 17.58 0 21.98 19.98 21.98 19.98 26.38 29.98 26.38 29.98 30.77 44.97 30.77 44.97 26.38 59.95 26.38 59.95 21.98 64.16 21.98"/>
  <polyline class="cls-3" points="57.31 13.09 52.73 13.09 52.73 8.51 43.56 8.51 43.56 13.09 34.4 13.09 34.4 17.68 29.81 17.68 25.23 17.68 25.23 22.26 16.06 22.26 16.06 26.84 2.31 26.84 2.31 22.26 11.48 22.26 11.48 17.68 20.65 17.68 20.65 13.09 29.81 13.09 29.81 3.93 48.15 3.93 57.31 3.93 57.31 8.51 61.9 8.51 61.9 13.09"/>
</svg>