<?xml version="1.0" encoding="UTF-8"?>
<svg id="Layer_1" data-name="Layer 1" xmlns="http://www.w3.org/2000/svg" xmlns:xlink="http://www.w3.org/1999/xlink" viewBox="0 0 123.78 49.06">
  <defs>
    <style>
      .cls-1 {
        fill: url(#linear-gradient);
      }

      .cls-1, .cls-2, .cls-3, .cls-4, .cls-5, .cls-6, .cls-7, .cls-8, .cls-9 {
        stroke-width: 0px;
      }

      .cls-2 {
        fill: url(#linear-gradient-6);
      }

      .cls-3 {
        fill: url(#linear-gradient-5);
      }

      .cls-4 {
        fill: url(#linear-gradient-2);
      }

      .cls-5 {
        fill: url(#linear-gradient-7);
      }

      .cls-6 {
        fill: url(#linear-gradient-3);
      }

      .cls-7 {
        fill: url(#linear-gradient-9);
      }

      .cls-8 {
        fill: url(#linear-gradient-8);
      }

      .cls-9 {
        fill: url(#linear-gradient-4);
      }
    </style>
    <linearGradient id="linear-gradient" x1="40.2" y1="40.8" x2="41.12" y2="19.63" gradientUnits="userSpaceOnUse">
      <stop offset="0" stop-color="#445456" stop-opacity=".7"/>
      <stop offset="1" stop-color="#231f20" stop-opacity="0"/>
    </linearGradient>
    <linearGradient id="linear-gradient-2" x1="82" y1="42.35" x2="82.45" y2="31.87" xlink:href="#linear-gradient"/>
    <linearGradient id="linear-gradient-3" x1="35.09" y1="95.24" x2="33.61" y2="-28.16" gradientUnits="userSpaceOnUse">
      <stop offset="0" stop-color="#b1b3a5"/>
      <stop offset="1" stop-color="#231f20" stop-opacity="0"/>
    </linearGradient>
    <linearGradient id="linear-gradient-4" x1="70.75" y1="98.28" x2="69.46" y2="-10.11" xlink:href="#linear-gradient-3"/>
    <linearGradient id="linear-gradient-5" x1="114.12" y1="56.27" x2="113.94" y2="40.5" xlink:href="#linear-gradient-3"/>
    <linearGradient id="linear-gradient-6" x1="109.41" y1="45.95" x2="108.85" y2="-.82" xlink:href="#linear-gradient-3"/>
    <linearGradient id="linear-gradient-7" x1="82.91" y1="-13.28" x2="81.34" y2="75.53" gradientUnits="userSpaceOnUse">
      <stop offset="0" stop-color="#fefdf1"/>
      <stop offset="1" stop-color="#231f20" stop-opacity="0"/>
    </linearGradient>
    <linearGradient id="linear-gradient-8" x1="116.7" y1=".54" x2="116.07" y2="36.76" xlink:href="#linear-gradient-7"/>
    <linearGradient id="linear-gradient-9" x1="28.6" y1="29.33" x2="28.27" y2="48.23" xlink:href="#linear-gradient-7"/>
  </defs>
  <polyline class="cls-1" points="21.14 34.4 21.14 29.51 26.03 29.51 26.03 24.62 30.92 24.62 30.92 19.73 45.58 19.73 45.58 14.85 55.35 14.85 55.35 24.62 60.24 24.62 60.24 29.51 45.58 29.51 45.58 34.4"/>
  <polyline class="cls-4" points="74.91 39.28 74.91 34.4 79.79 34.4 79.79 29.51 89.57 29.51 89.57 39.28"/>
  <polyline class="cls-6" points="19.55 29.33 19.55 24.44 4.89 24.44 4.89 19.55 24.44 19.55 24.44 14.66 29.33 14.66 29.33 9.78 39.1 9.78 39.1 4.89 43.99 4.89 43.99 0 53.77 0 53.77 4.89 63.54 4.89 63.54 9.78 68.43 9.78 68.43 14.66 58.65 14.66 58.65 19.55 48.88 19.55 48.88 24.44 39.1 24.44 39.1 29.33 39.1 34.21 24.44 34.21 24.44 39.1 17.92 39.47 17.8 34.21 0 34.21 0 29.33"/>
  <polygon class="cls-9" points="35.8 39.28 35.8 34.4 40.69 34.4 45.58 34.4 45.58 29.51 50.47 29.51 50.47 24.62 55.35 24.62 55.35 19.73 60.24 19.73 60.24 14.85 74.91 14.85 74.91 19.73 84.68 19.73 84.68 24.62 89.57 24.62 89.57 29.51 99.35 29.51 99.35 34.4 104.23 34.4 104.23 39.28 84.68 39.28 84.68 44.17 74.91 44.17 74.91 49.06 60.24 49.06 60.24 44.17 45.58 44.17 45.58 39.28 35.8 39.28"/>
  <polyline class="cls-3" points="109.12 49.06 109.12 44.17 114.01 44.17 118.9 44.17 118.9 49.06"/>
  <polyline class="cls-2" points="99.35 24.62 99.35 19.73 104.23 19.73 104.23 9.96 109.12 9.96 109.12 14.85 114.01 14.85 114.01 19.73 118.9 19.73 118.9 24.62"/>
  <polyline class="cls-5" points="55.35 19.73 60.24 19.73 60.24 14.85 70.02 14.85 70.02 19.73 79.79 19.73 79.79 24.62 84.68 24.62 89.57 24.62 89.57 29.51 99.35 29.51 99.35 34.4 114.01 34.4 114.01 29.51 104.23 29.51 104.23 24.62 94.46 24.62 94.46 19.73 84.68 19.73 84.68 9.96 65.13 9.96 55.35 9.96 55.35 14.85 50.47 14.85 50.47 19.73"/>
  <polyline class="cls-8" points="109.12 19.73 123.78 19.73 123.78 14.85 114.01 14.85 114.01 9.96 109.12 9.96 109.12 14.85"/>
  <polyline class="cls-7" points="21.14 34.4 35.8 34.4 35.8 39.28 21.14 39.28"/>
</svg>